<?xml version='1.0' encoding='utf-8'?>
<svg xmlns="http://www.w3.org/2000/svg" width="465.41483mm" height="505.35364mm" viewBox="0 0 465.41483 505.35364" version="1.1" id="svg5" xml:space="preserve"><defs id="defs2" /><g id="layer1"><path style="fill:#000000;stroke-width:1" d="m 286.84400000000096 503.47019999999975 c -3.186,-2.4325 -8.413,-4.9661 -12.227,-5.9261 -3.83,-0.9644 -6.77,-1.359 -15.48,-2.0779 -3.818,-0.3152 -8.692,-0.9724 -10.86,-1.4644 -17.205,-3.9036 -30.851,-14.7786 -38.573,-30.7391 -3.37,-6.9635 -5.206,-13.7165 -6.028,-22.1651 -0.696,-7.1453 0.481,-15.0214 3.243,-21.691 l 1.33,-3.2144 -1.554,-2.4853 c -2.505,-4.0036 -6.187,-9.1619 -7.141,-10.0008 -0.993,-0.8725 -3.728,-1.7835 -4.107,-1.3675 -0.135,0.1495 -0.529,1.8722 -0.874,3.8285 -3.994,22.6277 -14.532,40.75 -31.283,53.8029 -9.028,7.0338 -20.19,12.6757 -38.752,19.5857 -10.025,3.7323 -16.656,6.8743 -22.026,10.4364 l -4.055,2.69 0.246,-24.8181 c 0.135,-13.65 0.312,-25.0286 0.393,-25.2861 0.339,-1.0818 -0.509,-0.3089 -2.261,2.0592 -2.557,3.4556 -6.491,7.555 -10.299,10.7308 -3.352,2.7952 -9.628,7.2021 -9.871,6.9317 -0.429,-0.477 -2.911,-7.2617 -3.416,-9.3384 -0.852,-3.5062 -1.142,-10.2325 -0.588,-13.6665 1.327,-8.2306 5.588,-15.903 12.869,-23.1747 2.304,-2.3012 4.858,-4.6959 5.675,-5.3215 l 1.485,-1.1375 -3.732,-0.4261 c -6.061,-0.6921 -13.145,-2.8633 -14.442,-4.4267 -0.973,-1.1723 6.343,-8.7432 12.124,-12.5463 8.935,-5.8782 17.44,-8.5591 27.148,-8.5591 h 4.857 l 1.438,-1.7785 c 2.443,-3.0238 5.771,-6.3894 10.287,-10.4053 l 4.334,-3.8536 0.435,-3.9846 0.435,-3.9846 -1.451,-1.9433 c -1.802,-2.4114 -3.112,-5.0108 -3.997,-7.9338 -0.374,-1.2354 -0.714,-2.2981 -0.753,-2.3615 -0.04,-0.064 -3.419,-0.6921 -7.508,-1.3973 -7.237,-1.248 -7.45,-1.2634 -7.997,-0.5792 -0.309,0.3867 -1.383,1.8306 -2.387,3.2088 -3.667,5.0322 -11.199,9.7022 -18.731,11.6128 -14.493,3.6767 -29.609,0.7919 -43.092,-8.2242 -7.299,-4.8806 -13.018,-10.5603 -21.509,-21.3612 -7.39,-9.3981 -11.377,-13.6017 -17.625,-18.5846 -2.123,-1.6924 -9.627,-6.9555 -10.22,-7.1683 -0.925,-0.3318 0.1,-0.5919 5.351,-1.3581 10.445,-1.5238 19.311,-3.9019 27.53,-7.3843 9.735,-4.1254 13.207,-5.2941 23.915,-8.0478 l 1.451,-0.3733 -0.22,-1.5999 c -0.12,-0.88 -0.973,-4.2796 -1.895,-7.5545 -2.258,-8.0169 -2.988,-11.8199 -2.715,-14.1266 0.211,-1.7808 0.154,-1.9475 -1.077,-3.1436 -1.834,-1.7804 -1.768,-3.3111 0.343,-7.9268 2.488,-5.4395 3.756,-9.3774 5.068,-15.7367 l 1.192,-5.7755 -3.509,-3.5847 c -5.331,-5.447 -8.02,-9.1586 -11.136,-15.3733 -5.195,-10.358 -7.22,-19.6438 -7.229,-33.1399 0,-8.4298 0.626,-14.0134 2.6,-23.0258 2.714,-12.396 3.488,-16.8331 3.861,-22.1378 0.217,-3.0953 0.396,-5.882 0.396,-6.1927 0,-0.3314 1.032,0.382 2.499,1.7257 5.872,5.381 10.178,8.0823 20.298,12.7365 3.582,1.6469 6.904,3.2509 7.382,3.5642 0.478,0.3132 1.013,0.5696 1.188,0.5696 0.176,0 0.623,-0.9688 0.995,-2.1529 1.562,-4.977 3.95,-8.5301 10.184,-15.147 2.255,-2.394 4.586,-5.2452 5.179,-6.3359 1.073,-1.9713 1.081,-2.0242 1.107,-8.7433 l 0.02,-6.7601 1.226,-2.491 c 1.444,-2.9345 4.341,-5.7734 7.34,-7.1921 1.107,-0.5235 3.844,-1.4533 6.084,-2.0662 6.003,-1.6435 8.163,-2.4634 11.386,-4.3223 1.597,-0.9207 3.911,-1.9543 5.143,-2.297 2.088,-0.5804 2.271,-0.7205 2.669,-2.0508 0.532,-1.7758 3.272,-4.5689 5.677,-5.7877 10.074,-5.1053 28.381,-3.5519 44.691,3.7925 2.457,1.1064 4.493,1.9723 4.524,1.924 0.03,-0.049 0.603,-1.4613 1.27,-3.1401 2.583,-6.5036 6.976,-12.9094 11.433,-16.6754 5.167,-4.3653 10.694,-6.2531 20.588,-7.0325 10.506,-0.8275 13.228,-1.4478 20.598,-4.6941 5.795,-2.5522 7.988,-3.1781 11.136,-3.1781 2.436,0 5.549,0.9707 6.131,1.9117 0.111,0.18 1.057,-0.1061 2.1,-0.6348 3.021,-1.5311 6.598,-2.1282 9.953,-1.6615 5.19,0.7218 13.558,3.1726 17.426,5.1034 2.715,1.355 3.256,1.5013 3.256,0.8815 0,-0.6603 4.344,-9.118 6.319,-12.3014 7.922,-12.7728 19.609,-23.1423 38.048,-33.7579 7.418,-4.2705 9.512,-5.6847 13.862,-9.363 l 3.438,-2.9071 0.251,4.7168 c 0.42,7.8449 1.174,10.7589 7.289,28.1804 3.922,11.1706 5.653,19.6922 5.946,29.2608 0.579,18.9166 -4.216,36.5141 -14.077,51.6601 l -2.599,3.9924 0.808,0.74 c 2.111,1.9344 10.257,6.3222 14.732,7.9342 l 2.318,0.835 7.042,-2.7034 c 11.003,-4.2244 15.881,-5.6896 24.827,-7.4582 12.96,-2.5624 27.199,-2.5241 42.869,0.1156 10.255,1.7276 13.247,1.9156 19.519,1.2264 5.376,-0.5905 8.003,-0.7867 9.069,-0.6769 0.28,0.029 -0.9,1.5822 -2.62,3.4521 -4.572,4.9674 -8.731,10.2237 -10.788,13.6356 -3.75,6.2186 -5.282,9.7732 -11.468,26.5827 -4.099,11.1443 -10.271,22.2954 -16.126,29.1413 -1.204,1.4072 -2.662,3.1102 -3.24,3.7843 l -1.052,1.2259 3.532,5.3886 c 1.942,2.9637 4.145,6.6111 4.896,8.1055 1.482,2.9549 2.641,7.2125 2.275,8.3644 -0.162,0.5145 0.221,1.2344 1.329,2.4927 1.873,2.1285 4.163,6.7973 5.096,10.3878 0.942,3.626 0.988,14.3177 0.07,17.597 -1.901,6.8368 -4.144,10.3949 -10.735,17.0312 -6.135,6.1762 -7.379,8.2749 -7.325,12.3595 0.02,2.0364 0.305,3.5283 1.013,5.4289 0.537,1.4415 1.233,3.716 1.548,5.0545 1.972,8.372 -1.16,18.6564 -8.364,27.4733 -3.962,4.8488 -7.508,7.6546 -16.51,13.061 -6.209,3.7286 -9.068,6.4738 -11.983,11.504 -1.132,1.954 -2.774,4.3008 -3.649,5.215 -0.875,0.9142 -1.591,1.7232 -1.591,1.7977 0,0.074 1.179,1.6618 2.621,3.5271 9.662,12.5023 15.814,28.1446 18.899,48.0585 0.319,2.0592 0.739,7.7876 0.935,12.7297 0.728,18.4666 1.32,21.5717 6.013,31.5436 0.994,2.1107 1.712,3.8377 1.596,3.8377 -0.115,0 -2.673,-0.8375 -5.684,-1.8611 -3.01,-1.0237 -6.97,-2.1188 -8.798,-2.4337 -4.185,-0.7206 -12.222,-0.7238 -19.139,-0.011 -20.035,2.0745 -39.505,-1.0942 -55.22,-8.9868 -13.155,-6.6069 -25.074,-16.9988 -33.343,-29.0721 -1.237,-1.8059 -2.384,-3.3671 -2.55,-3.4692 -0.164,-0.1019 -2.055,-0.5487 -4.202,-0.9926 -9.962,-2.0599 -17.579,-5.76 -23.558,-11.4436 l -2.808,-2.6688 -2.809,1.8344 c -3.797,2.4811 -10.325,5.7597 -16.661,8.3678 -2.883,1.1867 -5.269,2.178 -5.303,2.2028 -0.03,0.024 2.66,0.053 5.99,0.063 8.445,0.024 12.569,0.9189 19.157,4.1573 15.36,7.5501 28.92,27.7967 33.312,49.7397 1.525,7.6214 1.842,12.4517 1.468,22.4642 -0.185,4.9422 -0.289,13.9139 -0.231,19.9371 0.05,6.0233 0.05,10.9388 0,10.9234 -0.05,-0.015 -1.199,-0.8642 -2.538,-1.8861 z m -1.927,-11.5645 c -0.178,-2.574 -0.299,-7.6284 -0.269,-11.2321 0.05,-5.8 -0.04,-6.8417 -0.761,-9.0756 -1.065,-3.2944 -3.473,-6.7704 -6.235,-9 -4.33,-3.4944 -12.385,-6.954 -19.333,-8.304 -1.712,-0.3326 -3.528,-0.6951 -4.035,-0.8054 -0.681,-0.1483 0.246,1.0005 3.562,4.4129 5.222,5.3745 8.353,9.4644 15.714,20.5257 2.947,4.4273 6.145,9.0605 7.108,10.2961 1.334,1.7133 0.786,1.2601 -2.308,-1.9091 -2.233,-2.2856 -6.763,-6.4133 -10.068,-9.1729 -3.304,-2.7595 -10.013,-8.3604 -14.91,-12.4461 -4.897,-4.0858 -8.997,-7.3352 -9.11,-7.2209 -0.558,0.5573 -0.527,9.0436 0.05,14.0322 0.731,6.3136 1.896,10.312 3.898,13.3766 2.689,4.1166 3.355,4.3936 11.664,4.8549 l 4.68,0.2598 -2.62,-1.874 c -1.443,-1.0307 -3.127,-2.4245 -3.745,-3.0974 -0.992,-1.0809 -0.885,-1.0383 0.92,0.3666 3.372,2.6231 7.534,4.4808 13.109,5.8509 5.093,1.2517 9.201,2.7428 11.601,4.2105 0.711,0.435 1.319,0.755 1.351,0.7112 0.03,-0.043 -0.09,-2.1858 -0.264,-4.7599 z m -36.525,-4.6411 c -0.796,-0.9051 -1.896,-2.4673 -2.442,-3.4714 -2.411,-4.4296 -4.064,-13.6298 -4.147,-23.079 l -0.04,-5.1705 -5.632,-4.7281 c -3.097,-2.6004 -7.359,-6.4141 -9.471,-8.4747 -2.263,-2.2085 -3.968,-3.6013 -4.153,-3.3928 -0.881,0.995 -2.303,11.6444 -2.303,17.2442 0,6.6092 1.636,14.2077 3.991,18.5343 2.278,4.1862 10.981,9.7309 19.958,12.7153 5.741,1.9085 6.068,1.8949 4.244,-0.1773 z m -130.252,-9.7553 c 0.431,-0.2654 2.889,-1.8288 5.462,-3.4741 2.575,-1.6455 6.012,-3.7178 7.636,-4.6053 1.626,-0.8873 4.027,-2.615 5.336,-3.8391 1.308,-1.2241 2.379,-2.1012 2.379,-1.9491 0,0.1521 -0.677,1.291 -1.505,2.531 -0.828,1.24 -1.44,2.3206 -1.358,2.4014 0.277,0.2769 5.226,-5.3092 6.694,-7.5568 4.771,-7.2985 7.572,-16.7965 7.998,-27.1261 l 0.21,-5.0726 -1.059,1.1801 c -0.581,0.6491 -2.149,2.5023 -3.483,4.1185 -16.783,20.338 -19.042,22.8816 -31.866,35.8967 -9.36,9.5 -11.2,11.7658 -11.2,13.7992 0,0.8933 0.224,0.815 6.987,-2.4492 3.842,-1.8546 7.338,-3.5891 7.769,-3.8546 z m 155.331,3.8195 c -0.197,-0.2574 -1.432,-1.8948 -2.745,-3.6387 -8.608,-11.4352 -17.649,-20.3027 -33.443,-32.7983 -3.887,-3.0745 -7.551,-5.9813 -8.143,-6.4595 -0.594,-0.4782 -1.079,-0.7841 -1.079,-0.6795 0,0.104 3.244,3.0026 7.208,6.4405 4.45,3.859 13.152,12.2324 22.745,21.8846 8.546,8.5988 15.601,15.6532 15.677,15.6766 0.07,0.023 -0.02,-0.1683 -0.22,-0.4257 z m -161.894,-9.9756 c 8.343,-9.7406 15.496,-19.1132 20.471,-26.8264 l 2.068,-3.2052 -1.419,0.2388 c -12.983,2.1857 -21.82,6.9096 -26.676,14.2605 -3.665,5.5467 -4.113,11.7702 -1.655,22.9807 0.204,0.9274 0.217,0.9223 1.391,-0.5508 0.651,-0.8178 3.27,-3.9216 5.82,-6.8976 z m 109.774,-0.8063 c -2.84,-6.602 -3.853,-21.9163 -2.105,-31.8418 l 0.633,-3.592 -2.222,-2.9601 c -1.221,-1.628 -3.204,-4.5558 -4.406,-6.506 l -2.185,-3.5459 -0.697,1.5961 c -1.244,2.853 -1.882,7.0869 -1.902,12.6094 -0.03,8.98 1.851,16.9283 5.941,25.0851 1.91,3.8097 7.196,11.6364 7.592,11.2404 0.1,-0.094 -0.197,-1.0333 -0.649,-2.0852 z m 63.25,-8.968 c -1.005,-10.2768 -3.518,-19.3154 -7.86,-28.2675 -2.509,-5.1734 -3.927,-7.163 -6.149,-8.6286 -2.441,-1.61 -7.853,-3.3892 -11.455,-3.7661 l -2.808,-0.2939 2.247,-0.2811 c 2.309,-0.2887 7.711,0.1746 9.365,0.8035 1.516,0.5766 1.14,-0.2241 -1.682,-3.5754 -5.747,-6.8244 -13.482,-11.9257 -20.787,-13.7095 -5.031,-1.2282 -14.805,-1.2147 -22.309,0.031 -3.003,0.4985 -5.741,0.7986 -6.084,0.6669 -0.399,-0.1532 -0.624,-0.6634 -0.624,-1.418 0,-1.0398 -0.1,-1.1519 -0.842,-0.9519 -0.464,0.1247 -2.654,0.4308 -4.868,0.6803 -2.213,0.2495 -4.024,0.599 -4.024,0.7768 0,0.2379 4.485,6.8613 5.488,8.1045 0.06,0.085 0.42,-0.1147 0.782,-0.4427 1.273,-1.1522 6.317,-3.2747 10.003,-4.2097 11.286,-2.8631 24.762,-0.7995 34.543,5.29 3.666,2.2823 3.747,2.6729 0.186,0.8901 -12.188,-6.1003 -26.888,-6.446 -38.46,-0.9044 -1.441,0.6904 -3.079,1.6404 -3.638,2.1111 l -1.018,0.856 1.766,3.5568 1.767,3.5568 8.237,0.4359 c 19.467,1.0302 28.929,3.5279 39.09,10.3192 4.655,3.111 9.985,7.7991 12.886,11.3348 l 1.536,1.8721 -2.233,-2.0851 c -9.418,-8.7955 -21.637,-14.3747 -35.687,-16.2945 -4.289,-0.5861 -20.648,-1.286 -20.647,-0.8834 0,0.8842 4.757,5.096 10.335,9.154 3.679,2.6771 9.473,6.957 12.874,9.511 l 6.182,4.6437 2.996,0.5091 c 9.363,1.5914 18.773,5.6109 23.811,10.1696 2.45,2.2172 5.021,5.6164 6.384,8.4401 l 0.88,1.8235 0.12,-2.7595 c 0.06,-1.5177 -0.08,-4.6971 -0.303,-7.0651 z m -144.296,6.816 c 16.904,-7.6003 29.057,-17.4131 37.431,-30.2253 4.519,-6.9132 8.535,-16.772 10.239,-25.1348 0.895,-4.3991 0.928,-5.4082 0.236,-7.3479 -1.232,-3.4528 -3.398,-5.2616 -6.848,-5.7193 -3.027,-0.4016 -3.018,-0.417 -2.485,3.6313 1.368,10.3976 -0.357,23.765 -4.371,33.869 -1.402,3.5297 -2.972,6.6477 -3.22,6.3988 -0.106,-0.104 0.09,-0.7401 0.442,-1.4129 1.941,-3.7541 4.284,-12.9099 5.069,-19.8129 0.805,-7.075 -0.224,-17.9191 -2.068,-21.8053 -0.339,-0.7147 -1.029,-1.52 -1.532,-1.7896 -1.646,-0.8804 -2.497,-0.077 -4.639,4.374 -2.952,6.1376 -7.204,12.6554 -12.903,19.7825 l -2.096,2.6208 v 3.5088 c 0,3.9519 -0.81,10.0376 -1.905,14.3683 -2.393,9.4606 -6.542,16.8992 -13.259,23.7755 -1.66,1.6988 -2.995,3.0888 -2.966,3.0888 0.03,0 2.223,-0.9764 4.877,-2.1698 z m -35.749,-12.0697 c 1.946,-3.8929 6.576,-8.7398 10.663,-11.1627 5.009,-2.969 13.14,-5.7279 18.568,-6.2999 2.099,-0.2214 2.156,-0.2591 3.517,-2.3265 2.507,-3.807 5.833,-8.3694 11.267,-15.452 2.947,-3.8421 5.358,-7.0855 5.358,-7.2073 0,-0.418 -8.423,-0.2136 -13.529,0.3283 -18.793,1.9945 -28.798,7.2937 -34.05,18.0334 -1.703,3.4812 -2.381,6.3776 -2.925,12.4922 -0.505,5.6851 -0.928,15.2161 -0.662,14.9641 0.115,-0.1096 0.922,-1.6259 1.793,-3.3696 z m -23.68,-2.5151 c 6.177,-5.0479 9.979,-9.6706 13.344,-16.2261 2.256,-4.3961 6.37,-16.1431 5.738,-16.3825 -0.569,-0.2148 -5.224,2.7438 -7.664,4.8701 -5.188,4.5208 -9.224,10.6775 -11.62,17.7232 l -0.51,1.4976 0.217,-1.7933 c 0.442,-3.6762 2.779,-9.2923 5.691,-13.6799 2.049,-3.0861 7.265,-8.3865 11.103,-11.2827 1.871,-1.4118 3.933,-3.1297 4.581,-3.8177 1.27,-1.3455 3.501,-4.7286 3.501,-5.3077 0,-0.2059 -0.885,-0.2621 -2.122,-0.1345 -5.584,0.5763 -14.55,7.4801 -19.718,15.1815 -3.953,5.8926 -6.61,13.37 -6.602,18.5878 0,3.3305 1.56,12.1682 2.141,12.1682 0.112,0 0.976,-0.6318 1.92,-1.404 z m 320.461,-16.8482 c -1.867,-4.1022 -2.883,-7.4609 -3.691,-12.199 -0.444,-2.597 -1.129,-5.1849 -1.642,-6.1976 -1.381,-2.7239 -4.123,-6.1538 -7.256,-9.0749 l -2.875,-2.6802 2.434,1.6199 c 1.338,0.891 3.856,3.0158 5.596,4.7219 1.739,1.7061 3.248,3.0156 3.354,2.9099 0.106,-0.1061 0.189,-2.9227 0.186,-6.2602 -0.01,-7.1319 -0.738,-11.8975 -3.515,-22.9165 -1.943,-7.7126 -3.911,-13.425 -5.735,-16.6493 -1.691,-2.9892 -6.282,-7.5964 -10.143,-10.1793 -6.011,-4.0205 -12.136,-6.677 -20.601,-8.9353 l -4.463,-1.1905 -0.678,0.8802 c -0.907,1.1807 -1.282,3.2579 -0.743,4.1222 0.365,0.5848 0.315,0.6892 -0.333,0.6892 -0.919,0 -0.918,0 -1.446,4.6006 -0.23,2.0155 -0.662,4.2468 -0.96,4.9584 -0.668,1.5981 -0.643,1.6139 4.287,2.789 13.811,3.2921 26.404,10.613 34.735,20.1948 l 2.143,2.4641 -2.995,-2.7415 c -6.059,-5.5467 -15.648,-11.1571 -24.015,-14.0507 -4.263,-1.4741 -13.946,-3.9872 -15.363,-3.9872 -0.641,0 -1.488,0.6156 -2.756,2.0031 -1.007,1.1016 -2.768,2.7261 -3.914,3.61 l -2.082,1.6069 3.609,2.2868 c 13.865,8.7837 21.422,16.5919 35.384,36.5606 7.8,11.1538 11.028,15.3299 13.971,18.0726 1.883,1.7545 0.84,1.3102 -3.025,-1.2889 -5.357,-3.6031 -11.28,-8.8922 -24.038,-21.4659 l -8.752,-8.6249 0.248,4.3768 c 0.322,5.7084 1.459,13.2943 2.485,16.5899 1.913,6.1429 4.863,9.9181 9.538,12.2029 l 2.611,1.2757 10.297,-0.1264 c 9.238,-0.1134 10.681,-0.047 14.045,0.6444 2.062,0.4239 4.421,1.0164 5.242,1.3168 0.82,0.3003 1.608,0.5579 1.749,0.5724 0.142,0.015 -0.26,-1.1108 -0.893,-2.5008 z m -46.445,-0.9361 c -2.292,-2.2546 -3.328,-4.2036 -3.524,-6.6306 l -0.138,-1.6999 0.505,1.4976 c 1.299,3.8497 3.09,6.0365 6.349,7.7557 1.35,0.7119 2.306,0.8545 6.542,0.975 3.438,0.098 4.96,0.015 4.96,-0.2699 0,-0.226 -0.318,-0.411 -0.707,-0.411 -0.937,0 -4.826,-2.8871 -6.359,-4.7207 -3.955,-4.7296 -6.996,-15.0233 -8.283,-28.0398 l -0.408,-4.1184 -4.797,-4.716 c -2.638,-2.5938 -6.133,-5.7326 -7.766,-6.9752 -4.068,-3.097 -8.372,-5.8423 -8.679,-5.5358 -0.139,0.1396 -0.25,5.1679 -0.246,11.174 0.01,8.5066 0.154,11.9133 0.673,15.4131 1.107,7.4678 2.798,13.4222 5.258,18.5043 1.423,2.9393 0.953,2.7511 -0.601,-0.2416 -3.243,-6.2357 -5.706,-14.5465 -6.859,-23.1299 -0.339,-2.527 -0.693,-8.6296 -0.808,-13.9466 l -0.206,-9.4537 h -1.195 c -2.427,0 -6.075,3.3658 -9.939,9.1729 -2.494,3.7478 -4.862,6.4435 -7.074,8.0539 -2.047,1.4909 -2.284,1.8057 -2.514,3.346 -0.348,2.3214 0.42,10.4299 1.32,13.9378 1.419,5.524 1.999,6.4406 5.555,8.7826 6.029,3.9706 14.462,7.7286 22.596,10.0699 6.101,1.7557 10.934,2.6095 17.671,3.1209 0.45,0.034 0.01,-0.5981 -1.326,-1.9146 z m -248.466,-5.616 c 1.729,-3.3933 5.034,-7.2791 8.356,-9.8227 7.404,-5.6697 19.778,-9.0018 36.336,-9.784 l 5.504,-0.2602 1.076,-1.7199 c 2.529,-4.0403 4.945,-9.381 4.945,-10.9289 0,-0.8478 -0.211,-1.6715 -0.468,-1.8304 -0.256,-0.159 -2.335,-0.5759 -4.619,-0.9264 -5.299,-0.8135 -10.012,-2.0417 -15.296,-3.9862 l -4.192,-1.5426 -2.272,0.6306 c -8.326,2.3115 -16.442,9.4411 -23.362,20.5228 -2.305,3.6915 -4.348,8.5774 -5.449,13.0303 -0.938,3.797 -1.74,8.2088 -1.492,8.2088 0.06,0 0.487,-0.716 0.933,-1.5912 z m 279.037,-2.619 c -0.392,-0.4623 -1.492,-1.7161 -2.444,-2.7863 -0.952,-1.0701 -3.556,-4.3565 -5.786,-7.3027 -14.994,-19.8082 -23.471,-28.1966 -37.219,-36.8343 -4.414,-2.773 -4.554,-2.8305 -5.45,-2.2432 -0.506,0.3317 -0.92,0.7282 -0.92,0.8812 0,0.153 0.962,0.8534 2.136,1.5563 6.651,3.9775 14.336,10.6978 24.066,21.0445 10.293,10.9462 25.524,26.5251 25.933,26.5251 0.218,0 0.07,-0.3783 -0.316,-0.8406 z m -76.09,-8.426 c -0.84,-1.6425 -2.414,-9.7641 -2.904,-14.9762 -0.139,-1.4929 -0.314,-2.7144 -0.388,-2.7144 -0.07,0 -1.359,0.3284 -2.854,0.7298 -1.494,0.4015 -4.108,0.9263 -5.807,1.1664 -1.698,0.2399 -3.089,0.5669 -3.089,0.7265 0,0.528 3.23,4.6879 5.659,7.2893 2.128,2.2789 9.093,8.4339 9.543,8.4339 0.1,0 0.02,-0.2949 -0.16,-0.6553 z m -195.105,-13.1977 c 2.941,-4.4923 7.361,-9.6401 10.346,-12.0475 4.119,-3.3227 5.019,-3.9279 8.261,-5.5503 l 3.08,-1.5418 -2.652,-2.5048 c -3.84,-3.6268 -4.147,-3.7789 -5.816,-2.8797 -2.418,1.302 -7.796,8.3919 -11.508,15.172 -2.419,4.4185 -7.008,16.3154 -6.967,18.0615 0.01,0.2549 0.722,-0.8843 1.591,-2.5318 0.871,-1.6473 2.519,-4.4273 3.665,-6.1776 z m -11.07,-2.1994 c 3.556,-0.9445 4.208,-1.2398 4.771,-2.1617 1.186,-1.937 1.052,-2.0045 -3.929,-1.9949 -7.49,0.015 -17.854,0.6798 -19.902,1.2774 -1.049,0.3058 -2.496,1.0501 -3.217,1.654 l -1.311,1.0978 1.686,0.4544 c 3.042,0.8208 6.468,1.0805 12.167,0.9226 4.69,-0.1299 6.295,-0.336 9.735,-1.2496 z m -16.824,-4.5353 c 1.572,-0.3631 12.153,-2.2734 17.76,-3.2061 1.75,-0.2913 3.94,-0.5338 4.867,-0.5391 1.588,-0.011 1.734,-0.1 2.529,-1.5646 0.465,-0.8552 0.782,-1.6177 0.705,-1.6943 -0.08,-0.076 -1.805,-0.2377 -3.839,-0.3576 -4.399,-0.2594 -9.091,0.4518 -14.14,2.1432 -3.401,1.1399 -8.26,3.4974 -9.965,4.8369 -0.857,0.6721 -0.873,0.7346 -0.188,0.7339 0.411,-4e-4 1.434,-0.159 2.271,-0.3523 z m 125.588,-1.8625 c 21.976,-3.4123 43.588,-15.0419 57.024,-30.6842 7.935,-9.2366 13.289,-19.6198 14.885,-28.8603 0.679,-3.9385 0.585,-10.1041 -0.205,-13.2914 -0.836,-3.3726 -3.1,-8.2441 -5.194,-11.1735 -2.219,-3.1052 -5.673,-6.3385 -6.514,-6.0998 -3.125,0.8856 -4.959,1.5434 -4.959,1.7785 0,0.1542 0.484,0.6251 1.077,1.0463 0.591,0.4213 2.239,2.1597 3.662,3.8632 3.809,4.5608 3.977,4.8759 1.008,1.8936 -2.876,-2.8889 -5.814,-4.9554 -8.114,-5.7063 -1.461,-0.4766 -4.55,-0.2616 -4.924,0.3425 -0.107,0.1738 0.774,1.3881 1.957,2.6986 5.453,6.0379 6.769,8.4761 1.965,3.6425 -2.162,-2.1757 -4.546,-4.2363 -5.298,-4.5791 -1.362,-0.6209 -3.722,-0.8385 -4.175,-0.385 -0.132,0.131 0.541,1.0998 1.494,2.1527 3.538,3.9098 6.967,10.1269 10.009,18.1494 0.966,2.5455 1.692,4.6916 1.614,4.769 -0.07,0.077 -0.928,-1.6683 -1.891,-3.8794 -4.856,-11.1485 -11.063,-18.8514 -16.516,-20.4982 -1.716,-0.518 -5.455,-0.7798 -5.455,-0.3819 0,0.096 0.736,1.318 1.635,2.7144 1.866,2.895 3.356,5.7224 3.134,5.9444 -0.08,0.083 -0.68,-0.666 -1.326,-1.664 -2.142,-3.305 -5.734,-6.0472 -7.924,-6.0472 -1.017,0 -0.978,0.2347 0.59,3.6297 2.243,4.8513 4.824,11.2684 6.495,16.1489 1.659,4.8395 1.892,6.445 0.403,2.7747 -3.314,-8.1687 -9.327,-18.6061 -12.887,-22.3661 l -1.771,-1.872 0.224,1.3933 c 0.124,0.7663 0.8,2.9409 1.504,4.8324 2.047,5.5079 1.991,6.1703 -0.203,2.3856 -2.018,-3.481 -6.514,-10.1235 -7.096,-10.4832 -0.425,-0.2626 0.05,3.0165 1.721,11.7936 0.1,0.5148 -0.585,-1.17 -1.518,-3.7441 -2.206,-6.0858 -4.294,-10.2561 -5.223,-10.4285 -0.677,-0.1255 -0.701,0.061 -0.464,3.5569 0.139,2.0291 0.332,8.6595 0.428,14.7342 l 0.175,11.0449 -1.099,-7.1137 c -1.996,-12.8967 -3.943,-21.5283 -4.859,-21.5283 -1.113,0 -3.331,13.488 -4.711,28.642 -0.338,3.7066 -0.697,6.8234 -0.799,6.9263 -0.183,0.1823 -0.106,-2.6051 0.638,-22.6512 0.458,-12.3915 0.454,-14.0402 -0.03,-14.0402 -0.748,0 -3.474,7.4929 -6.47,17.7841 l -0.545,1.8721 -0.03,-1.8721 c -0.02,-1.0295 0.214,-4.6519 0.518,-8.0497 0.303,-3.3976 0.555,-7.2306 0.557,-8.5177 0,-2.0508 -0.08,-2.3399 -0.707,-2.3399 -2.216,0 -10.293,11.9475 -15.819,23.4003 -1.192,2.471 -2.172,4.3563 -2.179,4.1895 -0.02,-0.5022 3.148,-8.0388 5.143,-12.2393 1.027,-2.1621 3.319,-6.5427 5.096,-9.7345 3.534,-6.3516 3.848,-7.3451 2.199,-6.945 -3.487,0.8462 -12.117,8.7137 -17.475,15.9307 -3.328,4.4836 -4.081,5.3287 -2.835,3.1824 2.426,-4.1803 6.558,-9.8888 11.791,-16.2865 4.291,-5.247 4.571,-6.2458 1.413,-5.0442 -6.837,2.6025 -18.541,12.1635 -26.799,21.8924 -4.839,5.7017 -4.851,5.4784 -0.05,-0.9361 5.863,-7.8307 11.769,-13.8693 20.044,-20.4955 1.833,-1.4679 3.334,-2.8062 3.334,-2.9741 0,-0.5225 -2.082,-0.3359 -4.44,0.3982 -4.067,1.2657 -12.841,6.5723 -19.709,11.9208 l -2.622,2.0407 2.059,-1.9032 c 3.185,-2.9435 11.354,-9.0645 15.885,-11.9028 2.25,-1.4093 4.152,-2.747 4.227,-2.9727 0.07,-0.2257 -0.671,-0.6082 -1.657,-0.85 -0.987,-0.2418 -2.062,-0.5193 -2.391,-0.6167 -0.369,-0.1098 -1.723,0.8333 -3.556,2.4787 -5.442,4.8826 -11.778,8.5119 -17.973,10.2956 -2.958,0.8513 -4.669,1.7525 -8.013,4.2216 -11.636,8.5911 -18.886,22.4542 -17.252,32.9878 0.695,4.4784 2.422,7.671 6.343,11.7229 1.859,1.9222 3.562,3.9734 3.784,4.5581 0.223,0.5846 0.648,3.3633 0.944,6.1748 1.037,9.8198 3.152,13.5969 8.873,15.8434 1.792,0.7033 2.875,0.789 10.974,0.8673 4.942,0.048 10.333,0.2837 11.981,0.5243 8.378,1.2233 14.275,3.9069 17.037,7.7529 2.098,2.9228 2.829,3.4331 6.363,4.4461 2.497,0.7157 8.182,0.6378 13.478,-0.1847 z m -10.761,-50.746 c -0.01,-1.2355 0.11,-3.2572 0.264,-4.4928 l 0.278,-2.2465 0.01,2.2465 c 0.01,1.2356 -0.111,3.2573 -0.265,4.4928 l -0.278,2.2465 z m -108.824,46.954 c 6.883,-2.8116 13.464,-4.0381 18.405,-3.4304 l 2.718,0.3343 0.746,-1.2644 c 0.41,-0.6955 0.746,-1.3174 0.746,-1.382 0,-0.065 -1.154,-0.231 -2.562,-0.3698 -5.03,-0.4956 -13.376,1.3694 -19.154,4.2797 -2.468,1.2428 -8.611,5.3941 -8.611,5.8188 0,0.086 0.966,-0.4614 2.147,-1.2167 1.18,-0.7554 3.685,-2.0017 5.565,-2.7695 z m 202.666,0.7721 c 7.015,-1.6816 10.991,-4.7794 14.639,-11.4051 1.501,-2.7251 2.821,-4.5036 4.867,-6.552 3.292,-3.2964 5.084,-4.3299 11.094,-6.3983 5.783,-1.9905 7.633,-3.0293 10.058,-5.6492 2.43,-2.6244 3.279,-4.7477 4.093,-10.2272 0.796,-5.352 1.53,-8.1039 2.896,-10.8576 1.387,-2.7957 2.236,-3.9195 6.483,-8.5833 7.577,-8.32 10.634,-12.1259 15.067,-18.7546 5.394,-8.0642 9.923,-18.3329 11.489,-26.0467 1.786,-8.795 0.846,-19.131 -2.627,-28.8829 -3.778,-10.6085 -15.805,-28.5914 -17.792,-26.6036 -0.539,0.5383 -2.197,5.2047 -2.197,6.1809 0,0.4427 0.463,1.2993 1.029,1.9035 0.881,0.9392 0.912,1.0373 0.212,0.6757 -1.377,-0.7124 -2.348,-0.5134 -2.759,0.5655 -0.491,1.2936 0.04,1.8728 3.929,4.2744 4.947,3.0547 5.272,3.4659 1.574,1.9836 -1.907,-0.7644 -4.054,-1.353 -5.054,-1.386 -1.621,-0.053 -1.74,0.011 -1.74,0.8788 0,0.7959 0.657,1.3285 4.384,3.5569 2.411,1.4415 4.572,2.8103 4.802,3.0419 0.229,0.2316 -1.419,-0.3153 -3.665,-1.2153 -5.241,-2.1004 -7.032,-2.3713 -8.422,-1.2743 -1.18,0.9319 -1.337,2.2356 -0.373,3.1086 0.362,0.3269 2.089,1.2059 3.838,1.9532 1.749,0.7474 3.349,1.5416 3.555,1.765 0.265,0.287 0.154,0.3258 -0.374,0.1321 -1.513,-0.554 -6.321,-1.708 -7.118,-1.708 -1.304,0 -3.234,1.5412 -4.182,3.3382 -1.369,2.5955 -1.332,2.6197 8.999,5.8351 3.058,0.9521 5.484,1.8088 5.389,1.9037 -0.1,0.096 -2.509,-0.3497 -5.364,-0.988 -2.855,-0.6384 -6.338,-1.2569 -7.74,-1.3744 -2.309,-0.1936 -2.635,-0.1321 -3.473,0.6557 -0.509,0.478 -0.926,1.0778 -0.926,1.333 0,0.255 2.022,1.834 4.494,3.5087 2.47,1.6749 4.492,3.1424 4.492,3.261 0,0.1187 -0.211,0.044 -0.468,-0.1679 -0.739,-0.6056 -6.723,-2.9318 -8.863,-3.4452 -3.731,-0.895 -3.017,0.043 4.153,5.4613 2.815,2.1267 5.232,4.0504 5.37,4.2748 0.139,0.2245 -1.406,-0.4243 -3.433,-1.4415 -4.016,-2.0152 -9.151,-3.9399 -11.608,-4.3511 -1.828,-0.3062 -3.871,0.5407 -3.871,1.6052 0,0.8171 0.894,1.6512 6.178,5.7609 2.264,1.762 5.465,4.4892 7.114,6.0606 l 2.995,2.857 -3.106,-2.0688 c -6.807,-4.5345 -14.985,-7.6819 -19.962,-7.6819 -1.989,0 -2.579,0.1228 -2.579,0.5361 0,0.295 1.558,1.8378 3.463,3.4287 3.948,3.2979 11.361,10.4677 13.125,12.6962 1.177,1.4857 1.169,1.4823 -1.056,-0.422 -5.659,-4.8457 -13.636,-9.3872 -20.334,-11.5755 -4.629,-1.5121 -11.379,-2.3329 -10.744,-1.3065 0.1,0.152 1.912,1.4782 4.038,2.9471 5.506,3.8022 11.482,8.649 15.755,12.7797 3.98,3.8466 5.841,6.2999 2.382,3.1409 -2.905,-2.6531 -8.645,-6.9048 -13.355,-9.8917 -7.517,-4.7662 -16.488,-8.645 -16.488,-7.1289 0,0.1852 2.233,2.2889 4.962,4.6749 4.415,3.8615 8.381,7.858 12.29,12.3857 0.704,0.817 -0.443,-0.054 -2.551,-1.9363 -5.742,-5.1285 -9.966,-8.1799 -14.231,-10.282 -3.421,-1.6868 -4.975,-2.0521 -4.956,-1.1661 0,0.1609 1.541,1.9773 3.417,4.0366 5.825,6.3926 11.907,14.9354 15.345,21.5527 2.571,4.9506 2.31,5.0072 -0.6,0.1301 -4.235,-7.0978 -11.059,-15.2539 -15.646,-18.7015 -2.726,-2.0499 -5.537,-3.5429 -6.671,-3.5429 -0.791,0 -0.793,0.018 -0.135,1.0296 0.369,0.5663 1.551,2.1248 2.627,3.4633 2.849,3.5418 6.531,9.1695 8.524,13.0299 1.72,3.3295 4.374,9.2695 4.355,9.7483 0,0.1362 -1.079,-1.8119 -2.388,-4.3292 -4.442,-8.5432 -9.465,-15.2214 -13.301,-17.6835 -1.923,-1.2344 -3.499,-1.4023 -3.67,-0.3911 -0.05,0.3088 1.099,2.1622 2.56,4.1184 2.47,3.3088 6.54,9.1947 7.249,10.4833 0.501,0.9096 -0.266,0.028 -2.183,-2.5116 -2.311,-3.0601 -7.364,-8.1395 -8.874,-8.9204 -1.161,-0.6007 -1.225,-0.5924 -2.09,0.2719 l -0.892,0.8915 0.971,1.2967 c 0.534,0.7132 1.395,2.1391 1.912,3.1686 l 0.94,1.8721 -1.162,-1.3761 c -1.614,-1.914 -3.569,-3.062 -4.721,-2.7729 -0.508,0.1276 -0.924,0.4201 -0.924,0.6498 0,0.2298 1.11,1.9083 2.466,3.7299 3.452,4.636 5.487,8.3533 7.664,13.9967 4.842,12.5543 7.787,17.1559 18.325,28.6256 4.219,4.593 4.261,4.6551 2.078,3.1133 -5.386,-3.803 -12.731,-11.0671 -17.121,-16.9339 -1.068,-1.4279 -2.062,-2.522 -2.21,-2.4313 -0.146,0.09 -0.475,1.64 -0.732,3.4429 -0.627,4.418 -0.249,14.0704 0.745,18.9812 1.216,6.0123 3.831,14.0758 6.078,18.742 1.038,2.1564 1.045,2.2029 0.164,1.1583 -1.397,-1.6578 -4.773,-7.8093 -6.697,-12.2032 -1.778,-4.0615 -3.278,-8.7037 -4.021,-12.449 -0.235,-1.1841 -0.569,-2.1528 -0.742,-2.1528 -0.542,0 -1.952,1.9942 -5.436,7.6835 -3.505,5.7259 -7.259,10.6709 -12.842,16.9155 -4.976,5.5647 -5.501,6.3341 -5.03,7.368 0.808,1.7738 6.425,5.4073 11.384,7.3642 6.359,2.51 17.167,3.3579 23.487,1.8428 z m 91.59,-28.6638 c -1.585,-3.793 -7.325,-12.0916 -10.37,-14.9913 -1.615,-1.5394 -1.636,-1.5459 -5.178,-1.7634 -2.003,-0.123 -5.194,-0.6583 -7.302,-1.2248 -5.049,-1.3572 -5.93,-1.4586 -6.517,-0.7502 -0.411,0.4961 -0.352,0.6391 0.395,0.9433 9.789,3.9858 14.797,6.3971 18.574,8.9416 2.827,1.9039 7.921,6.4853 9.298,8.3625 0.737,1.0037 1.412,1.8251 1.5,1.8251 0.08,0 -0.1,-0.6042 -0.4,-1.3428 z m -296.961,-9.5494 c 6.903,-1.3958 12.313,-4.1589 16.194,-8.2715 2.178,-2.3083 3.234,-4.1178 3.064,-5.2485 -0.106,-0.7004 -0.306,-0.6179 -2.115,0.8678 -7.746,6.3607 -10.022,7.5801 -17.405,9.3261 -3.058,0.723 -10.625,1.4596 -15.042,1.4639 -3.059,0 -1.137,-0.5984 2.809,-0.8786 7.351,-0.5222 14.639,-2.5666 19.552,-5.4854 2.312,-1.3732 7.406,-5.7013 7.404,-6.2904 0,-0.1309 -1.041,-0.2769 -2.314,-0.3246 -3.078,-0.1152 -5.952,-0.9907 -8.3,-2.5292 -1.061,-0.6942 -2.661,-1.4537 -3.557,-1.6879 -1.491,-0.3895 -1.748,-0.3468 -3.032,0.5028 -4.632,3.0651 -11.944,5.9621 -18.552,7.3496 -4.391,0.9221 -12.66,1.3511 -16.568,0.8595 -1.492,-0.1879 -2.713,-0.2456 -2.711,-0.1285 0,0.4013 4.108,3.2074 7.576,5.1793 10.208,5.8047 21.509,7.6183 32.997,5.2956 z m -24.947,-12.746 c 2.11,-0.4094 5.279,-1.232 7.043,-1.8281 3.016,-1.0196 9.053,-3.8496 10.755,-5.042 0.867,-0.6062 0.919,-0.5735 -3.287,-2.0541 -3.12,-1.0985 -9.128,-3.7303 -13.392,-5.8664 -3.884,-1.9464 -4.07,-1.9993 -5.112,-1.4601 -3.788,1.9584 -12.525,3.5151 -20.527,3.6573 -3.14,0.056 -5.71,0.2022 -5.71,0.3252 0,0.378 4.898,5.9996 7.51,8.6178 1.856,1.8603 3.019,2.6816 4.674,3.3009 4.17,1.5599 11.115,1.6944 18.046,0.3495 z m 310.743,0.2358 c 2.186,-0.6494 3.479,-1.9235 6.505,-6.4107 2.924,-4.3365 6.915,-8.0907 13.261,-12.4726 3.088,-2.1331 6.531,-4.5691 7.648,-5.4135 6.875,-5.189 11.606,-11.3056 14.037,-18.1461 2.072,-5.8253 1.986,-9.7623 -0.367,-16.8423 -1.77,-5.326 -1.989,-7.8318 -0.976,-11.1654 1.102,-3.6315 3.01,-6.303 8.558,-11.9893 5.299,-5.4308 7.086,-8.0537 8.622,-12.6568 0.908,-2.719 1.001,-3.5306 1.015,-8.7985 0.01,-4.4949 -0.138,-6.352 -0.664,-8.2368 -1.697,-6.086 -4.922,-10.314 -8.774,-11.5056 -4.008,-1.2398 -23.579,-0.704 -31.908,0.8734 -1.963,0.3719 4.097,-1.8105 7.488,-2.6963 7.053,-1.8427 12.393,-2.529 19.895,-2.5574 l 6.978,-0.027 -0.73,-1.872 c -1.634,-4.1963 -4.401,-8.2805 -10.678,-15.7619 -10.914,-13.0105 -13.852,-19.7663 -15.242,-35.0502 -0.951,-10.4466 -2.363,-14.0658 -7.506,-19.2337 -5.246,-5.2716 -9.467,-7.2644 -22.187,-10.4756 -9.974,-2.5182 -13.789,-3.7873 -19.015,-6.3278 -4.56,-2.217 -8.853,-4.9832 -13.666,-8.8074 -11.799,-9.3744 -20.434,-12.7336 -32.738,-12.7336 -5.29,0 -9.662,0.7478 -15.185,2.597 -4.699,1.5727 -11.233,4.441 -11.233,4.9305 0,0.4347 3.881,3.0138 6.593,4.381 1.258,0.6342 5.133,2.0193 8.611,3.078 15.878,4.8325 24.204,11.5181 30.893,24.8061 1.49,2.962 2.494,4.5204 3.053,4.7431 0.458,0.1825 2.434,0.9472 4.391,1.6996 1.956,0.7524 5.476,2.3801 7.821,3.6171 2.347,1.2371 4.536,2.1707 4.868,2.0749 0.331,-0.095 0.939,-0.3064 1.351,-0.4676 0.719,-0.2819 0.723,-0.2643 0.1,0.455 -0.907,1.036 -0.833,1.3133 0.614,2.2984 0.695,0.4733 2.758,2.1112 4.583,3.6398 3.757,3.1448 3.924,3.1866 8.9,2.2343 1.628,-0.3115 3.013,-0.513 3.078,-0.4477 0.06,0.065 -1.224,0.7456 -2.865,1.5122 -1.874,0.8749 -2.985,1.6128 -2.985,1.9824 0,0.8914 1.115,3.0518 1.688,3.2717 0.278,0.1068 2.581,0.032 5.118,-0.167 2.538,-0.1986 5.709,-0.2372 7.047,-0.086 l 2.434,0.2754 -2.808,0.2479 c -3.069,0.2712 -9.734,1.796 -9.734,2.2274 0,0.5572 1.219,3.1935 1.757,3.799 0.308,0.3465 0.755,0.5641 0.992,0.4837 1.302,-0.4399 12.449,-0.9247 15.562,-0.6767 l 3.592,0.2861 -3.745,0.2944 c -6,0.472 -14.362,2.2949 -14.959,3.2613 -0.111,0.1799 0.134,1.963 0.546,3.9623 0.411,1.9994 0.748,3.671 0.748,3.715 0,0.043 1.305,-0.1343 2.902,-0.3959 4.239,-0.6946 4.733,-0.5908 1.777,0.3733 -2.244,0.7324 -5.008,1.9356 -5.074,2.21 -0.01,0.046 -0.232,1.4874 -0.49,3.2027 l -0.469,3.1188 0.957,-0.2053 c 2.455,-0.5261 10.163,-1.0527 11.479,-0.7843 l 1.461,0.2978 -2.622,0.4655 c -6.247,1.1098 -11.205,3.023 -12.319,4.7544 -1.019,1.5812 -1.107,3.3761 -0.222,4.5014 0.441,0.5608 1.084,1.0202 1.43,1.021 0.395,9e-4 0.185,0.2712 -0.565,0.7287 -0.656,0.4001 -1.405,1.1155 -1.665,1.5898 -0.398,0.7269 -1.755,11.6211 -1.806,14.4999 l -0.02,0.9077 0.842,-0.7734 c 1.718,-1.5769 8.494,-4.4337 9.867,-4.1592 0.389,0.079 -0.334,0.7654 -2.005,1.9063 -2.926,1.9972 -7.042,5.9062 -7.398,7.0251 -0.169,0.5354 0.341,1.4293 1.897,3.3207 1.958,2.3796 2.209,2.5619 3.114,2.262 1.321,-0.4379 6.039,-1.0286 6.037,-0.7559 0,0.1192 -0.769,0.5324 -1.707,0.918 -0.937,0.3856 -1.966,1.0988 -2.284,1.5848 -0.735,1.123 -0.335,2.3834 1.798,5.6574 l 1.534,2.3528 h 1.947 c 3.963,0 9.506,2.4504 14.168,6.2637 2.966,2.4257 3.115,3.0993 0.205,0.9249 -4.002,-2.9905 -8.612,-4.7482 -11.767,-4.4865 -1.112,0.092 -2.115,0.2623 -2.231,0.3784 -0.116,0.116 0.559,1.7432 1.499,3.6159 l 1.71,3.405 2.713,1.3615 c 4.048,2.0317 7.334,4.2582 9.836,6.6627 2.224,2.1384 2.228,2.144 0.552,1.0624 -4.735,-3.0553 -10.876,-5.811 -10.84,-4.8639 0.01,0.2557 0.66,2.1339 1.446,4.1738 1.282,3.327 1.598,3.8227 3.072,4.8132 2.382,1.6022 2.471,1.7624 0.739,1.3227 -0.857,-0.2175 -1.618,-0.3313 -1.692,-0.2529 -0.07,0.079 0.08,1.2202 0.364,2.5374 0.273,1.3172 0.614,3.4758 0.755,4.797 l 0.257,2.4021 2.405,1.5191 c 2.46,1.5532 2.892,2.1262 1.088,1.44 -0.557,-0.2117 -1.492,-0.3849 -2.079,-0.3849 -1.209,0 -1.135,-0.2637 -1.923,6.8658 l -0.448,4.0579 1.088,0.8949 1.087,0.895 -1.137,-0.2101 -1.138,-0.2102 -1.392,4.5075 c -2.681,8.6758 -6.396,16.3829 -12.89,26.74 -4.815,7.678 -6.053,10.9454 -5.245,13.8367 0.226,0.808 0.162,1.0296 -0.299,1.0296 -0.771,0 -2.797,1.0547 -2.797,1.4564 0,0.4324 2.804,1.4641 5.669,2.0857 3.189,0.6921 6.147,0.6964 8.45,0.013 z m -257.481,-12.3319 c 4.048,-0.6705 6.326,-1.1844 9.299,-2.0968 4.256,-1.3068 4.784,-1.6912 6.436,-4.6826 1.995,-3.6135 4.428,-6.8937 7.414,-9.9966 l 2.433,-2.5272 h -3.899 c -10.253,-0.013 -17.89,-3.5574 -24.043,-11.1584 -3.453,-4.2641 -5.788,-6.6764 -7.712,-7.9666 -1.6,-1.0733 -1.907,-1.1437 -4.343,-0.9962 -2.078,0.1257 -3.3,0.4769 -5.896,1.694 -1.802,0.8445 -3.277,1.4142 -3.277,1.266 0,-0.4038 4.089,-3.7616 5.7,-4.6816 0.774,-0.442 1.407,-0.888 1.407,-0.9909 0,-0.103 -0.969,-0.8576 -2.15,-1.6769 -1.181,-0.8193 -3.459,-2.5463 -5.059,-3.8377 -2.376,-1.9149 -3.163,-2.3479 -4.271,-2.3479 -1.313,0 -1.337,-0.024 -0.712,-0.714 0.617,-0.6828 0.579,-0.8112 -0.864,-2.9258 -2.113,-3.0965 -4.013,-7.256 -4.919,-10.7747 -1.533,-5.9451 -1.629,-17.5388 -0.221,-26.3914 l 0.471,-2.9626 -0.961,-0.1285 -0.963,-0.1284 0.993,-0.4951 c 1.102,-0.5493 1.212,-1.0211 3.131,-13.325 1.104,-7.0836 1.659,-16.2866 0.981,-16.2866 -1.129,0 -4.053,2.4061 -9.036,7.4364 -9.138,9.2247 -12.705,15.1803 -17.072,28.5065 -1.383,4.2213 -3.078,8.9959 -3.767,10.61 -0.689,1.6142 -1.251,3.0765 -1.251,3.2495 0,0.173 0.913,0.5801 2.028,0.9043 4.505,1.3097 12.622,6.0896 15.007,8.8367 l 0.749,0.8628 -0.749,-0.2966 c -7.194,-2.8488 -13.908,-4.4605 -14.957,-3.5903 -0.738,0.6117 -0.603,1.452 1.317,8.2527 0.785,2.7799 1.796,6.6551 2.247,8.6113 1.486,6.455 3.155,8.7224 8.165,11.09 11.051,5.221 10.488,4.8784 14.311,8.7198 3.141,3.1565 3.839,4.1073 5.531,7.5328 1.496,3.0289 2.193,5.0691 3.066,8.9737 1.356,6.0679 2.362,8.3974 4.591,10.6257 3.199,3.1991 6.535,4.2935 13.17,4.3202 2.47,0.011 5.925,-0.219 7.675,-0.509 z m -31.097,-1.8546 c -0.4,-0.9053 -1.237,-3.7748 -1.859,-6.3768 -2.755,-11.5261 -6.29,-16.7149 -14.134,-20.7441 -2.106,-1.0819 -3.829,-1.8769 -3.829,-1.7667 0,0.1102 0.59,0.9735 1.311,1.9184 4.105,5.377 7.569,13.679 9.442,22.6248 l 0.666,3.1824 4.118,1.3843 c 2.266,0.7613 4.32,1.3931 4.566,1.404 0.3,0.014 0.209,-0.5181 -0.281,-1.6263 z m -38.245,-0.4401 c 3.329,-0.679 10.934,-3.12 10.934,-3.5096 0,-0.4178 -14.197,-7.2207 -20.779,-9.9567 -7.591,-3.1552 -17.792,-6.5478 -23.581,-7.8419 -4.297,-0.9606 -6.392,-1.6551 -5.061,-1.6774 1.017,-0.017 9.467,1.488 13.774,2.4533 9.673,2.1675 24.668,6.901 33.001,10.4169 1.737,0.7326 3.21,1.2797 3.273,1.2157 0.251,-0.2498 -1.485,-4.7878 -2.856,-7.4684 -4.035,-7.8901 -9.067,-11.6353 -17.473,-13.0034 -1.465,-0.2383 -2.58,-0.178 -4.119,0.2227 -2.952,0.7692 -3.026,0.879 -1.272,1.9243 0.856,0.511 1.488,0.999 1.403,1.0846 -0.09,0.086 -1.236,-0.2479 -2.554,-0.7408 -1.827,-0.6832 -2.62,-0.8116 -3.333,-0.5401 -2.194,0.8346 -9.968,2.5844 -15.293,3.4418 -3.159,0.5088 -5.825,1.0065 -5.925,1.1062 -0.09,0.1 0.885,0.9001 2.187,1.7787 7.223,4.8701 11.34,8.6315 17.278,15.7792 3.85,4.6344 4.234,4.9585 6.504,5.4927 2.431,0.5719 10.736,0.4657 13.892,-0.1778 z m 25.745,-6.347 c -0.48,-2.2602 -1.144,-5.036 -1.479,-6.1687 -2.873,-9.7402 -8.174,-17.7038 -13.144,-19.7465 -3.565,-1.4649 -7.732,-2.4375 -9.439,-2.2034 -1.993,0.2732 -11.265,3.377 -11.85,3.9668 -0.32,0.3231 -0.285,0.3766 0.141,0.2144 0.819,-0.311 6.188,0.7065 8.606,1.6302 5.885,2.2497 11.167,8.6894 14.082,17.1726 0.71,2.0657 1.523,3.7634 1.908,3.9842 0.964,0.5537 11.887,5.4178 11.974,5.3317 0.04,-0.039 -0.321,-1.9213 -0.799,-4.1813 z m 72.675,-16.6778 c 4.847,-0.5404 9.255,-1.877 13.669,-4.1445 3.743,-1.923 8.909,-5.5952 9.939,-7.0667 0.538,-0.7685 0.478,-0.9089 -1.101,-2.5569 -0.92,-0.9592 -3.732,-4.135 -6.249,-7.0576 -6.177,-7.1713 -10.122,-10.3242 -17.113,-13.6788 -4.902,-2.3522 -7.413,-2.3608 -13.996,-0.048 -0.309,0.1085 0.617,-0.5159 2.06,-1.3878 3.254,-1.9684 3.931,-2.5446 3.931,-3.3472 0,-0.3484 -0.891,-1.965 -1.98,-3.5924 -1.087,-1.6274 -2.454,-4.0815 -3.037,-5.4536 -0.729,-1.7178 -1.307,-2.5614 -1.858,-2.7093 -0.441,-0.1181 -2.738,-0.2314 -5.106,-0.2519 -4.924,-0.042 -4.416,-0.413 1.591,-1.1628 2.875,-0.3588 3.645,-0.5792 3.627,-1.0369 -0.01,-0.3198 -0.224,-1.845 -0.468,-3.3894 -0.425,-2.6855 -0.503,-2.8366 -1.787,-3.4645 -0.738,-0.3611 -2.338,-0.8606 -3.557,-1.1102 -3.269,-0.6699 -14.522,-0.554 -19.063,0.1963 -6.228,1.0294 -6.906,1.0457 -3.183,0.076 5.599,-1.4568 11.534,-2.1642 18.534,-2.2094 3.5,-0.022 6.853,0.095 7.45,0.261 l 1.085,0.3019 -0.243,-2.6189 c -0.383,-4.1266 -0.583,-4.4321 -3.09,-4.7455 -1.179,-0.1472 -4.43,-0.1877 -7.229,-0.09 -3.104,0.1082 -4.576,0.056 -3.776,-0.1338 2.546,-0.6043 8.826,-1.426 10.951,-1.4327 l 2.153,-0.011 v -1.2168 c 0,-2.2125 -0.724,-3.9517 -2.11,-5.094 -1.817,-1.4974 -4.186,-2.1133 -8.128,-2.1133 -3.292,0 -3.302,0 -1.684,-0.4803 1.032,-0.3045 3.237,-0.4415 6.027,-0.3744 3.388,0.082 4.4,0 4.4,-0.3748 0,-0.2644 -0.755,-3.3813 -1.677,-6.9265 -0.923,-3.5452 -2.015,-8.0949 -2.429,-10.1104 -0.413,-2.0156 -0.944,-4.0374 -1.181,-4.4929 -0.525,-1.0105 -3.78,-5.1043 -7.026,-8.8348 -1.322,-1.5206 -2.217,-2.6999 -1.987,-2.6208 0.23,0.08 2.278,1.8831 4.55,4.0086 l 4.133,3.8646 0.01,-3.8646 c 0.02,-5.1196 0.564,-10.9724 1.316,-14.0776 0.838,-3.4602 3.49,-8.7957 5.74,-11.5481 1.031,-1.2606 3.189,-3.3301 4.797,-4.5988 5.376,-4.242 5.731,-4.5675 5.731,-5.2525 0,-1.2775 -0.965,-1.6441 -3.721,-1.4132 -4.831,0.405 -11.162,3.7877 -18.182,9.7128 -11.608,9.7999 -20.327,19.3861 -23.294,25.6134 -0.701,1.4711 -1.538,4.0139 -1.861,5.6505 -0.584,2.9646 -0.582,2.9952 0.565,8.1829 1.638,7.4142 2.071,11.2682 1.823,16.2521 -0.335,6.7439 -1.506,10.2072 -5.511,16.2956 -3.742,5.6887 -4.881,12.3166 -3.376,19.6473 1.395,6.7989 4.514,12.034 9.808,16.4607 2.637,2.2053 3.732,2.8208 11.326,6.3701 6.634,3.0998 8.378,4.5528 13.62,11.3431 6.511,8.4341 11.446,11.1603 22.094,12.2049 0.266,0.025 2.098,-0.1328 4.072,-0.3529 z m -48.243,-60.1347 c 0.271,-0.1081 0.593,-0.094 0.717,0.03 0.125,0.1245 -0.1,0.213 -0.491,0.1967 -0.436,-0.018 -0.524,-0.1067 -0.226,-0.2262 z m 157.89,59.984 c 8.807,-1.4284 15.696,-4.975 19.847,-10.2162 2.111,-2.6659 5.043,-8.4051 5.043,-9.8704 0,-1.0043 -0.09,-1.0715 -1.031,-0.8348 -0.565,0.1416 -1.918,0.6505 -3.006,1.1308 -4.69,2.0715 -7.599,2.5579 -15.245,2.5491 -7.704,-0.011 -10.464,-0.3874 -17.784,-2.4388 -10.519,-2.9475 -19.785,-7.732 -28.829,-14.8849 -1.957,-1.5472 -4.4,-3.1867 -5.43,-3.6432 -1.952,-0.8658 -10.559,-3.0358 -10.857,-2.7375 -0.1,0.095 0.999,2.3511 2.427,5.0154 2.902,5.4097 6.696,14.0553 8.778,20.0076 1.92,5.4836 2.496,6.7393 3.094,6.7393 1.825,0 8.027,0.8993 9.453,1.3705 0.939,0.3106 3.854,1.7467 6.48,3.1911 5.047,2.7775 8.622,4.201 11.933,4.7508 3.234,0.5371 11.453,0.4671 15.127,-0.1288 z m -47.071,-7.3865 c 0.714,-0.714 0.537,-2.0017 -0.83,-6.0553 -1.759,-5.2188 -4.845,-12.0792 -7.162,-15.9259 -3.554,-5.8985 -5.666,-6.7379 -17.767,-7.0614 -8.773,-0.2345 -8.796,-0.3303 -0.374,-1.5955 6.322,-0.9498 7.564,-1.2837 8.458,-2.2742 0.71,-0.7874 0.706,-0.7995 -0.888,-2.2154 -2.329,-2.0688 -11.033,-5.4657 -14.474,-5.6485 -0.425,-0.022 -0.02,-0.1874 0.886,-0.3663 2.3,-0.4512 2.608,-0.8725 1.501,-2.057 -1.392,-1.4901 -3.737,-2.73 -8.139,-4.303 -3.617,-1.2923 -3.857,-1.4327 -2.47,-1.4502 0.845,-0.011 2.066,-0.2043 2.715,-0.4304 2.334,-0.8139 1.199,-2.0827 -3.349,-3.7421 -2.93,-1.0691 -9.113,-4.054 -8.871,-4.2831 0.06,-0.056 1.593,0.3966 3.409,1.0058 1.918,0.643 3.868,1.0595 4.649,0.993 l 1.348,-0.1146 -6.846,-7.1137 c -3.766,-3.9125 -10.968,-11.625 -16.005,-17.1387 -11.209,-12.2716 -17.555,-18.0969 -18.845,-17.2998 -0.557,0.3445 -0.432,4.6241 0.209,7.1219 0.315,1.2273 1.353,3.495 2.306,5.0395 2.736,4.4316 3.819,6.4986 4.611,8.8023 1.311,3.8116 2.267,9.942 2.629,16.8538 0.554,10.601 2.042,14.948 6.73,19.6587 2.043,2.0531 3.344,2.9117 8.105,5.3505 7.392,3.7858 9.406,5.6034 14.176,12.7928 6.285,9.4747 9.443,11.5476 22.273,14.6216 6.061,1.452 5.808,1.367 12.542,4.2183 7.226,3.0592 8.64,3.4496 9.473,2.6169 z m -148.19,-2.1009 c 0,-0.1671 -0.343,-0.6726 -0.763,-1.1232 -0.559,-0.6006 -1.184,-0.8144 -2.34,-0.801 l -1.576,0.018 2.246,1.0725 c 1.235,0.59 2.289,1.0872 2.34,1.1048 0.05,0.018 0.09,-0.105 0.09,-0.2716 z m 209.667,-13.2235 c 1.896,-0.4335 4.905,-1.5611 7.442,-2.7894 6.25,-3.0254 7.894,-3.3569 15.771,-3.1793 16.02,0.3611 17.105,0.3093 20.289,-0.9676 6.699,-2.6858 12.649,-8.7342 21.025,-21.3712 8.798,-13.2733 13.316,-24.8886 14.458,-37.1645 0.946,-10.1751 1.474,-12.6799 3.229,-15.3329 0.494,-0.7451 1.43,-2.865 2.08,-4.711 1.049,-2.9728 1.186,-3.8273 1.197,-7.4749 0.01,-4.9327 -0.612,-7.569 -2.935,-12.3875 -5.855,-12.138 -18.541,-21.5175 -33.122,-24.489 -4.134,-0.8424 -13.49,-1.0846 -13.49,-0.3492 0,0.9957 2.047,6.3787 3.264,8.5837 2.329,4.2162 3.487,5.5789 5.781,6.8016 7.831,4.1742 8.835,8.9966 4.605,22.1143 -1.31,4.0604 -1.526,5.1595 -1.015,5.1495 0.154,0 2.37,-1.6879 4.923,-3.7441 2.553,-2.0562 4.706,-3.7386 4.783,-3.7386 0.07,0 -0.81,1.1216 -1.973,2.4924 -2.44,2.8762 -5.125,6.9158 -6.176,9.2913 -0.838,1.8943 -1.508,5.0645 -1.07,5.0645 0.163,0 2.344,-0.5896 4.849,-1.3104 2.503,-0.7207 4.737,-1.3103 4.963,-1.3103 0.226,0 -0.84,0.8561 -2.37,1.9025 -3.472,2.3755 -6.263,5.0303 -6.942,6.6031 -0.642,1.4887 -0.644,1.4253 0.06,2.1382 0.451,0.4507 1.436,0.5926 4.212,0.6069 l 3.624,0.019 -3.51,1.2744 c -3.867,1.4043 -7.398,3.366 -7.974,4.43 -0.203,0.3781 -0.297,0.7604 -0.208,0.8496 0.09,0.089 1.897,0.4928 4.016,0.8968 2.121,0.404 3.943,0.8219 4.049,0.9289 0.107,0.1069 -0.982,0.1943 -2.421,0.1943 -2.117,0 -3,0.1966 -4.628,1.0296 -1.938,0.9922 -3.018,2.0616 -2.552,2.5274 0.122,0.1228 1.886,0.4173 3.917,0.6545 l 3.695,0.4314 -2.996,0.4466 c -3.022,0.4508 -6.571,1.5957 -7.855,2.5349 -0.668,0.4883 -0.657,0.5369 0.254,1.1339 0.523,0.3431 2.942,1.3788 5.374,2.3015 4.467,1.6945 9.618,4.2476 10.652,5.2783 0.309,0.3081 -0.618,-0.032 -2.059,-0.7563 -4.407,-2.2136 -8.788,-3.3438 -13.105,-3.3813 -4.136,-0.036 -5.976,0.5158 -4.996,1.4972 0.287,0.2863 1.55,1.0701 2.808,1.7419 l 2.286,1.2214 -4.355,0.016 c -3.45,0.013 -4.716,0.1682 -6.099,0.7488 -0.961,0.4028 -1.741,0.901 -1.734,1.1069 0.01,0.2059 1.803,1.0918 3.992,1.9685 2.189,0.8768 4.485,2.0059 5.103,2.5092 l 1.124,0.915 -2.27,-0.9043 c -4.679,-1.8646 -9.057,-2.5038 -12.473,-1.8208 -1.617,0.3235 -1.462,0.7864 0.422,1.2621 3.848,0.9713 12.199,4.307 11.795,4.7111 -0.07,0.077 -1.057,-0.2086 -2.177,-0.6346 -3.633,-1.3815 -7.565,-2.1914 -10.648,-2.1931 -4.622,0 -6.763,0.8105 -13.192,5.0074 -14.733,9.6189 -33.677,17.0044 -49.574,19.3269 -2.945,0.4303 -5.421,0.849 -5.503,0.9305 -0.289,0.2892 4.689,3.2161 9.488,5.5785 8,3.9388 15.039,5.9586 22.838,6.5537 4.331,0.3304 7.095,0.1392 11.045,-0.7639 z m -29.578,-19.2807 c 14.659,-3.0905 34.053,-12.5744 49.944,-24.4221 11.196,-8.3479 16.669,-14.7 19.392,-22.5097 1.428,-4.0938 2.117,-12.7381 1.016,-12.7381 -0.182,0 -2.732,2.4113 -5.669,5.3585 -5.494,5.5136 -7.908,7.3444 -14.132,10.7209 -1.953,1.0595 -3.948,2.2976 -4.433,2.7515 -0.486,0.4539 -2.336,3.0104 -4.111,5.6811 -5.716,8.5994 -9.903,13.0178 -18.179,19.1843 -6.273,4.6742 -13.624,8.7692 -24.764,13.7958 -2.677,1.208 -5.373,2.5065 -5.99,2.8858 l -1.123,0.6896 1.872,-0.245 c 1.029,-0.1347 3.809,-0.6533 6.177,-1.1526 z m -29.796,-0.2984 c -1.529,-1.3359 -3.848,-2.7993 -16.63,-10.4939 -4.222,-2.5412 -10.381,-6.4067 -13.686,-8.5903 -3.306,-2.1835 -6.207,-3.9701 -6.446,-3.9701 -0.58,0 0.665,2.88 2.228,5.1524 3.818,5.55 10.817,10.5599 20.26,14.5035 3.258,1.361 13.652,4.622 14.835,4.6551 0.841,0.023 0.801,-0.066 -0.561,-1.2567 z m 17.137,-6.2039 c 14.625,-1.423 28.693,-7.4203 37.942,-16.1761 3.358,-3.1788 4.999,-5.4292 3.667,-5.0305 -1.859,0.5567 -10.511,1.0293 -14.722,0.8042 -15.31,-0.8181 -27.787,-4.0326 -45.969,-11.8417 -8.388,-3.6028 -9.309,-3.8749 -10.492,-3.0999 -0.861,0.5641 -0.906,0.7512 -0.686,2.8539 0.129,1.2375 0.834,3.7477 1.566,5.5781 2.925,7.3093 7.027,13.1214 14.958,21.1906 l 5.99,6.0953 2.059,-0.011 c 1.133,-0.011 3.692,-0.1693 5.687,-0.3634 z m -23.776,-5.0094 c -0.108,-0.283 -2.121,-3.5336 -4.472,-7.2237 -6.08,-9.5392 -8.584,-13.8394 -13.377,-22.972 -2.321,-4.4225 -6.789,-12.8426 -9.93,-18.7114 -3.221,-6.0177 -6.3,-12.303 -7.062,-14.4145 -0.743,-2.0592 -1.836,-4.7128 -2.431,-5.8969 -0.704,-1.4069 -0.916,-2.1529 -0.608,-2.1529 0.563,0 1.557,-1.4341 1.877,-2.7074 0.171,-0.6848 -0.1,-1.3386 -1.069,-2.6128 l -1.297,-1.6995 1.083,0.4091 c 1.69,0.6376 2.35,-0.2767 2.35,-3.252 0,-2.0479 -0.23,-2.8761 -1.594,-5.7197 -0.877,-1.8288 -2.112,-4.1675 -2.744,-5.1971 -2.168,-3.528 -2.24,-3.7412 -0.692,-2.0592 0.852,0.9266 2.499,3.0739 3.66,4.7717 1.943,2.8421 2.162,3.0413 2.748,2.511 0.35,-0.3168 0.921,-1.4816 1.269,-2.5886 0.582,-1.8502 0.585,-2.1057 0.03,-3.1662 -0.609,-1.1785 -0.448,-1.4152 0.54,-0.7905 0.426,0.2688 1.349,-0.4251 3.931,-2.9515 1.884,-1.8428 5.031,-4.3806 7.119,-5.7404 2.06,-1.3405 4.444,-3.174 5.298,-4.0743 2.257,-2.3773 9.492,-11.903 9.492,-12.497 0,-0.5306 -3.055,-1.8154 -5.755,-2.4203 -6.001,-1.3452 -11.214,-0.6826 -17.459,2.2194 -5.745,2.6696 -5.659,2.6449 -11.264,3.2112 -7.667,0.7744 -11.106,2.4242 -13.191,6.3265 -0.769,1.4405 -0.825,2.1634 -1.041,13.3169 -0.222,11.4055 -0.268,11.9849 -1.441,17.5971 -1.128,5.4 -1.199,6.1674 -1.02,11.0449 0.614,16.6641 9.898,33.7361 26.835,49.3463 8.231,7.587 19.875,15.1761 27.36,17.8329 2.47,0.8766 3.108,0.935 2.849,0.2609 z m 62.831,-21.3293 c 2.06,-0.541 5.112,-1.6573 6.783,-2.4808 3.199,-1.5753 6.883,-4.6546 6.883,-5.7535 0,-0.5706 -0.238,-0.6136 -1.966,-0.3553 -1.081,0.1615 -6.515,0.2696 -12.075,0.2402 -8.1,-0.042 -12.452,-0.2788 -21.902,-1.1874 -6.487,-0.6237 -13.142,-1.2456 -14.79,-1.3822 -13.892,-1.1513 -25.282,-5.8851 -32.242,-13.4003 -3.94,-4.2546 -7.544,-10.7298 -9.106,-16.3626 -1.674,-6.0352 -2.053,-9.2109 -2.03,-17.0354 0.02,-7.62 0.348,-10.4317 1.979,-17.0355 0.598,-2.4205 0.621,-2.8848 0.166,-3.3645 -0.466,-0.4907 -0.731,-0.4498 -2.231,0.3462 -5.151,2.7323 -9.984,10.1715 -11.571,17.8073 -2.964,14.2656 1.773,27.7904 13.269,37.8937 11.78,10.3519 33.282,19.5175 52.437,22.3514 6.058,0.8962 6.05,0.8958 14.602,0.7963 7.316,-0.085 8.391,-0.1834 11.794,-1.0776 z m -107.87,-1.9658 c -5.27,-6.6522 -7.145,-9.4143 -9.13,-13.4438 -3.367,-6.8407 -5.008,-12.6396 -6.026,-21.2962 -0.569,-4.8358 -0.221,-21.0815 0.571,-26.6137 0.513,-3.5853 0.518,-4.1732 0.04,-4.6474 -0.475,-0.4741 -0.854,-0.3901 -2.994,0.6637 -5.273,2.5958 -11.247,7.9427 -14.016,12.5452 -2.839,4.7186 -4.159,10.9617 -3.428,16.2163 0.623,4.4815 1.312,5.6327 4.846,8.109 3.139,2.2004 10.488,9.3446 23.516,22.8653 3.959,4.1072 7.31,7.3552 7.448,7.2175 0.137,-0.1376 -0.237,-0.8648 -0.831,-1.6159 z m -97.938,-4.5517 c 0.443,-0.9782 1.495,-3.5475 2.337,-5.7097 0.843,-2.1622 2.11,-4.99 2.816,-6.2842 0.707,-1.294 1.284,-2.4734 1.284,-2.6207 0,-0.1475 -1.229,-1.7843 -2.731,-3.6377 -2.323,-2.866 -3.158,-3.5995 -5.588,-4.9083 -4.052,-2.1819 -7.174,-4.5117 -10.318,-7.7007 -4.251,-4.3102 -6.2,-7.5254 -7.727,-12.7404 l -0.908,-3.1053 0.185,3.5568 c 0.445,8.5913 2.238,17.6942 4.116,20.9153 0.558,0.9549 2.121,2.8199 3.474,4.1443 1.851,1.8103 2.09,2.1443 0.965,1.3456 -0.825,-0.5844 -1.982,-1.4995 -2.573,-2.0337 l -1.074,-0.9712 0.275,0.9361 c 0.617,2.1047 3.661,7.9681 5.791,11.1521 2.263,3.3833 7.699,9.4446 8.468,9.4417 0.221,-9e-4 0.766,-0.8019 1.208,-1.78 z m 211.665,-6.0743 c 4.482,-1.392 11.946,-6.3784 16.108,-10.7603 4.103,-4.3188 6.273,-8.5226 7.302,-14.1474 1.065,-5.8153 -0.06,-10.0535 -3.685,-13.8861 -2.911,-3.078 -3.598,-3.3234 -2.326,-0.8319 0.851,1.6698 1.042,2.6056 1.191,5.8419 0.159,3.4727 0.07,4.1695 -0.863,7.0477 -1.943,5.9729 -6.893,12.7246 -15.885,21.6669 -2.896,2.8801 -5.266,5.3653 -5.266,5.5225 0,0.4545 0.874,0.3389 3.424,-0.4533 z m -11.929,-1.1642 c 2.469,-0.8277 6.647,-3.036 6.051,-3.1999 -0.195,-0.053 -2.796,-0.2801 -5.783,-0.5034 -9.741,-0.7284 -17.185,-2.6919 -24.463,-6.4525 -5.29,-2.7344 -8.362,-6.8107 -10.378,-13.7749 -1.143,-3.9492 -1.489,-15.5009 -0.572,-19.0828 1.113,-4.3449 3.62,-6.3467 8.23,-6.5715 l 2.285,-0.1114 2.019,-2.3464 c 2.002,-2.3284 2.011,-2.3491 1.123,-2.6884 -1.102,-0.4212 -5.516,-0.066 -8.448,0.6807 -3.454,0.8793 -6.775,2.7522 -9.312,5.2526 -3.004,2.9594 -3.366,4.0308 -2.806,8.313 1.542,11.819 4.856,21.9225 9.175,27.975 2.987,4.187 9.441,8.2738 17.123,10.8444 7.223,2.417 12.004,2.9224 15.756,1.6655 z m 30.372,-1.3356 c 1.421,-0.6986 3.696,-2.0558 5.054,-3.016 3.502,-2.4757 9.521,-8.6751 12.47,-12.8448 5.185,-7.3297 9.32,-17.0444 9.42,-22.1333 0.04,-2.2609 -0.06,-2.6323 -1.101,-3.9384 -1.157,-1.4518 -2.11,-2.0219 -7.293,-4.3632 -4.456,-2.0123 -6.52,-4.1874 -11.24,-11.8393 -1.323,-2.1465 -3.207,-4.7819 -4.185,-5.8565 -3.178,-3.4894 -5.363,-3.8404 -14.888,-2.3914 -6.547,0.996 -12.392,0.8605 -18.153,-0.4207 -2.555,-0.5684 -4.992,-0.8335 -7.675,-0.8351 -4.875,0 -7.304,0.7556 -12.356,3.8579 -2.536,1.5579 -5.161,2.7389 -9.15,4.1178 -8.64,2.9866 -12.338,5.0049 -15.637,8.5322 -6.347,6.7886 -10.379,18.5355 -11.032,32.1411 -0.232,4.8539 -0.218,4.995 0.775,7.0231 0.841,1.7189 3.313,4.3477 4.089,4.3477 0.11,0 0.106,-3.0881 -0.01,-6.8623 -0.253,-8.0494 0.238,-13.4967 1.765,-19.5667 3.404,-13.5341 10.37,-20.6799 21.783,-22.3433 2.43,-0.3541 3.566,-0.3274 6.406,0.1512 l 3.451,0.5816 2.059,-1.8759 c 4.233,-3.8558 7.34,-5.3041 10.836,-5.0512 1.802,0.1304 3.517,0.8221 10.724,4.3262 9.032,4.3906 11.317,5.2159 17.848,6.4451 8.919,1.6786 13.212,4.2499 16.521,9.8948 2.039,3.4806 2.62,6.0139 2.624,11.4618 0,4.7236 -0.07,5.2874 -1.209,8.6114 -2.15,6.3034 -5.057,10.7078 -12.031,18.2256 -5.439,5.8635 -5.42,6.3528 0.142,3.6206 z m -53.664,0.6684 c -0.205,-0.3842 -1.939,-1.7658 -3.851,-3.0705 -7.986,-5.4479 -11.525,-10.6247 -14.506,-21.2226 -0.478,-1.6989 -0.991,-3.0888 -1.14,-3.0888 -0.149,0 -0.559,0.7534 -0.911,1.6743 -1.58,4.137 -1.408,9.7246 0.447,14.5019 1.351,3.4806 4.32,8.5069 5.966,10.1024 1.145,1.1093 1.517,1.2337 4.334,1.4496 1.695,0.1299 4.647,0.2622 6.558,0.2942 3.286,0.055 3.456,0.02 3.103,-0.6405 z m 21.375,-7.3172 c 7.522,-1.4443 14.284,-5.453 20.719,-12.2809 5.116,-5.4306 7.263,-9.5197 7.288,-13.8828 0.03,-4.8408 -2.247,-7.0455 -19.52,-18.9179 -10.462,-7.1918 -11.456,-7.5944 -14.9,-6.0327 -2.944,1.3355 -10.637,9.7654 -14.156,15.5138 -3.247,5.3023 -3.533,11.6668 -0.729,16.251 0.695,1.1382 0.811,1.1992 1.06,0.5617 0.155,-0.3935 0.297,-1.7262 0.316,-2.9617 0.06,-4.0264 2.197,-8.0676 5.19,-9.8267 1.497,-0.88 2.193,-1.0364 4.749,-1.0671 2.206,-0.026 3.445,-0.2449 4.704,-0.8288 2.354,-1.0927 5.787,-1.9432 7.844,-1.9432 2.545,0 5.349,1.5498 8.419,4.6519 3.065,3.0975 4.728,6.045 5.615,9.9499 0.351,1.5444 0.685,2.9765 0.744,3.1824 0.06,0.2059 0.584,-0.6365 1.166,-1.872 0.876,-1.8557 1.057,-2.7348 1.048,-5.0545 -0.01,-1.748 -0.243,-3.338 -0.623,-4.212 -0.978,-2.248 -0.332,-1.6182 0.767,0.7487 0.847,1.8234 1.002,2.6688 1.008,5.5225 0.01,2.8836 -0.136,3.6785 -0.994,5.5105 -1.789,3.8175 -6.459,8.0031 -11.579,10.378 -3.296,1.5289 -7.33,2.4834 -14.374,3.4001 -7.671,0.9985 -8.177,1.1958 -5.261,2.0546 2.129,0.6271 6.814,1.5775 8.129,1.6489 0.342,0.018 1.859,-0.2035 3.37,-0.4937 z m 18.558,-4.9983 c 2.789,-1.818 6.836,-6.3043 8.315,-9.2191 0.694,-1.3674 1.186,-2.5628 1.092,-2.6563 -0.09,-0.093 -0.92,0.8601 -1.836,2.1193 -0.917,1.2592 -4.109,4.6429 -7.095,7.5194 -5.387,5.1893 -5.448,5.477 -0.476,2.2367 z m -201.463,-1.4226 c 1.37,-0.9386 3.324,-2.128 4.341,-2.643 1.16,-0.5881 1.776,-1.1207 1.657,-1.4318 -0.849,-2.2118 -1.967,-6.6159 -3.263,-12.8492 -1.785,-8.5899 -2.989,-12.5306 -5.977,-19.5759 -2.784,-6.5618 -2.984,-7.3273 -2.986,-11.4401 0,-4.5997 -0.516,-5.3579 -5.232,-7.7307 -1.944,-0.9782 -3.745,-1.7784 -4.003,-1.7784 -0.328,0 -0.194,0.7291 0.451,2.4421 1.293,3.4352 1.145,3.7277 -0.485,0.9576 -1.781,-3.0273 -3.432,-4.7125 -8.33,-8.5035 -2.162,-1.6734 -4.426,-3.5684 -5.031,-4.2111 -0.605,-0.6426 -1.236,-1.1685 -1.404,-1.1685 -0.168,0 -0.305,0.9413 -0.305,2.0917 0,1.1505 -0.253,4.1486 -0.563,6.6625 l -0.564,4.5707 1.684,5.7865 c 3.704,12.7324 4.374,14.9495 5.849,19.3822 0.844,2.5355 1.588,4.5563 1.654,4.4906 0.06,-0.066 -0.963,-3.8755 -2.285,-8.4664 -1.323,-4.591 -2.4,-8.4651 -2.395,-8.6092 0.01,-0.3042 3.3,7.2301 6.913,15.8375 3.04,7.2458 5.858,12.8346 8.497,16.8482 l 1.969,2.9952 0.827,-3.4732 c 1.466,-6.1566 1.926,-14.9704 1.061,-20.3015 -0.135,-0.8354 -0.1,-0.8153 0.364,0.1872 1.619,3.5262 1.727,15.5119 0.199,21.9677 l -0.858,3.6217 2.731,3.0239 c 1.502,1.6632 2.788,3.0239 2.86,3.0239 0.08,0 1.253,-0.7679 2.624,-1.7067 z m 172.173,0.7167 c 4.731,-0.7343 5.056,-0.8282 4.306,-1.2419 -0.309,-0.1702 -2.199,-0.7433 -4.201,-1.2735 -2.002,-0.5302 -4.528,-1.4141 -5.614,-1.9642 -2.548,-1.2911 -6.529,-5.3317 -8.074,-8.1961 l -1.214,-2.2464 0.223,2.0592 c 0.65,5.9861 3.14,11.2071 6.256,13.1202 1.314,0.8069 1.5,0.8012 8.318,-0.2573 z m -49.608,-2.1628 c 0,-0.087 -0.342,-1.5966 -0.759,-3.3553 -3.158,-13.2921 -3.401,-22.6531 -0.862,-33.1787 1.212,-5.0235 3.505,-11.291 5.619,-15.3506 0.911,-1.7503 1.537,-2.8455 1.392,-2.4336 -0.145,0.4118 -0.84,2.3493 -1.542,4.3056 -2.351,6.5443 -3.47,12.3397 -4.011,20.7795 l -0.216,3.3696 1.439,-3.9668 c 2.35,-6.4748 5.431,-11.4177 9.779,-15.6895 3.815,-3.7487 6.237,-4.9777 13.293,-6.7466 6.819,-1.7097 8.394,-2.4522 14.034,-6.6193 4.909,-3.6273 5.765,-4.1041 10.151,-5.6497 3.821,-1.3468 8.455,-2.1128 10.722,-1.7728 2.956,0.4431 5.96,2.0815 9.222,5.0285 1.384,1.2506 1.484,1.2825 1.966,0.6238 1.644,-2.2476 2.368,-11.5625 1.17,-15.0427 -1.374,-3.9865 -3.977,-6.8823 -6.193,-6.8858 -1.002,0 -2.232,0.8112 -5.245,3.4641 -7.456,6.5644 -15.758,9.6711 -24.391,9.1264 -1.956,-0.1234 -6.643,-0.6803 -10.414,-1.2374 -8.369,-1.2358 -10.79,-1.0443 -15.362,1.2154 -4.214,2.083 -9.362,7.3308 -11.725,11.9536 -8.72,17.0579 -9.617,37.726 -2.275,52.4167 1.429,2.8617 3.405,5.8032 3.897,5.8032 0.171,0 0.311,-0.071 0.311,-0.1576 z m -139.319,-3.2802 c -5.485,-9.3028 -8.676,-18.3397 -11.767,-33.3197 -1.808,-8.7649 -3.038,-14.1552 -3.285,-14.4025 -0.438,-0.4377 -3.176,15.494 -3.483,20.2649 -0.55,8.5646 2.565,15.5005 10.138,22.5734 2.537,2.3689 8.505,6.7507 9.271,6.8049 0.148,0.011 -0.245,-0.8538 -0.874,-1.921 z m 206.891,1.5016 c 0.529,-0.2414 1.337,-1.0416 1.796,-1.7785 0.712,-1.1453 0.826,-1.8287 0.788,-4.7094 -0.129,-9.6062 -3.376,-15.9121 -8.195,-15.9121 -1.548,0 -4.605,0.7049 -4.863,1.1208 -0.1,0.154 0.803,0.8822 1.995,1.6182 3.942,2.433 6.676,6.005 7.791,10.1779 0.669,2.5051 0.643,6.6297 -0.05,8.2946 -0.791,1.8917 -0.794,1.8871 0.74,1.1885 z m -17.5,-1.8331 c -0.653,-1.3174 -0.695,-1.7188 -0.32,-2.9734 0.802,-2.6754 5.204,-5.3882 7.587,-4.6755 3.177,0.951 4.79,2.7826 5.769,6.551 l 0.437,1.6848 0.799,-1.3104 c 1.778,-2.9142 0.585,-8.0442 -2.614,-11.2426 -2.718,-2.7182 -7.547,-4.9841 -10.998,-5.1609 -2.256,-0.1155 -2.803,-0.013 -3.931,0.7405 -1.408,0.9395 -3.37,4.3275 -3.37,5.818 0,0.8412 0.04,0.8555 1.046,0.3375 4.596,-2.377 11.286,-2.0477 14.934,0.7354 1.596,1.2172 1.614,1.8517 0.02,0.9162 -1.829,-1.0773 -5.607,-1.3435 -8.511,-0.5996 -5.005,1.2822 -7.357,3.1111 -6.981,5.4278 0.238,1.4636 0.875,2.3275 1.107,1.4991 0.656,-2.3443 0.897,-2.7872 1.573,-2.885 0.666,-0.096 0.73,0.071 0.609,1.6 -0.194,2.4386 0.142,3.3785 1.529,4.2665 1.835,1.1752 2.161,0.9938 1.308,-0.7294 z m 5.246,-2.9024 c 0.727,-0.1029 0.845,0.051 0.854,1.1232 l 0.01,1.2429 0.945,-1.0744 c 1.253,-1.4253 1.106,-2.8937 -0.339,-3.3992 -1.326,-0.4635 -2.844,0.3013 -3.561,1.7927 -0.435,0.904 -0.412,1.1646 0.181,2.0456 l 0.679,1.0097 0.193,-1.3105 c 0.148,-1.0008 0.393,-1.3386 1.036,-1.43 z m -50.652,-4.3804 c 2.1,-13.1624 7.927,-25.3726 14.446,-30.2724 2.871,-2.1591 6.204,-3.7604 12.513,-6.0132 5.038,-1.799 7.086,-2.8258 9.917,-4.9723 6.279,-4.7612 14.16,-6.0782 23.042,-3.8506 4.97,1.2463 5.43,1.3063 5.43,0.71 0,-0.9596 -5.13,-5.4864 -7.576,-6.6851 -2.352,-1.1524 -2.717,-1.2235 -5.429,-1.0574 -3.201,0.196 -9.305,2.0579 -13.081,3.9904 -1.2,0.6142 -3.782,2.3053 -5.738,3.7579 -4.713,3.4985 -7.747,4.926 -14.044,6.607 -5.584,1.4907 -6.938,2.0461 -9.444,3.8729 -1.946,1.418 -5.59,5.9466 -7.422,9.2215 -2.842,5.0831 -5.417,14.4967 -5.402,19.7567 0.01,3.3651 1.43,9.4345 2.059,8.8043 0.07,-0.073 0.401,-1.8145 0.729,-3.8697 z m 98.27,-0.8353 c 0.238,-1.3899 0.499,-2.9484 0.579,-3.4632 0.08,-0.5147 -0.02,-2.1996 -0.224,-3.744 -0.455,-3.4704 -2.29,-7.5372 -4.466,-9.8977 -2.549,-2.7656 -5.254,-3.8558 -11.888,-4.791 -3.122,-0.4404 -5.804,-0.6736 -5.96,-0.5185 -0.384,0.3847 0.846,1.2801 5.792,4.2133 2.317,1.3742 5.227,3.4172 6.467,4.5401 4.096,3.7054 7.274,9.0348 8.272,13.8674 0.264,1.2765 0.595,2.3209 0.737,2.3209 0.142,0 0.453,-1.1373 0.691,-2.5273 z m -70.16,-2.6207 c 0,-4.8989 0.396,-6.4967 2.795,-11.3257 0.769,-1.5445 1.521,-3.2079 1.673,-3.6967 0.275,-0.8831 0.261,-0.8875 -2.191,-0.7314 -2.071,0.1318 -2.642,0.3246 -3.557,1.2014 -2.248,2.1537 -2.67,7.4323 -1.036,12.9611 0.876,2.9608 1.997,5.9905 2.219,5.9905 0.05,0 0.1,-1.9797 0.1,-4.3992 z m 187.612,1.6743 c 1.964,-2.1035 6.641,-8.4923 6.395,-8.7379 -0.05,-0.053 -1.462,0.3862 -3.132,0.9768 -1.668,0.5906 -4.444,1.4501 -6.169,1.9101 -1.724,0.46 -3.277,0.9591 -3.451,1.1092 -0.173,0.1501 -0.08,0.6701 0.228,1.1554 0.299,0.4853 1.165,2.0197 1.925,3.4097 0.76,1.39 1.523,2.5271 1.695,2.5271 0.172,0 1.301,-1.0576 2.509,-2.3504 z m -323.905,-7.3841 c 1.833,-2.1621 4.262,-5.0263 5.398,-6.3648 3.729,-4.3991 7.656,-8.3054 10.415,-10.3615 1.691,-1.2612 2.714,-2.2888 2.714,-2.7282 0,-0.9285 -2.545,-3.0883 -5.803,-4.9253 -1.738,-0.9799 -2.242,-1.395 -1.497,-1.2323 1.274,0.2784 6.241,2.6119 8.87,4.1674 1.363,0.8068 1.857,0.9395 2.206,0.5926 1.726,-1.7145 -5.392,-7.7476 -12.103,-10.2568 -3.508,-1.3123 -1.921,-1.2869 2.028,0.032 4.234,1.4146 7.441,3.1317 10.892,5.8312 1.428,1.1178 2.723,2.0325 2.876,2.0325 0.153,0 0.571,-0.3234 0.928,-0.7188 0.619,-0.684 0.613,-0.8045 -0.134,-2.4929 -1.944,-4.3921 -8.548,-9.8896 -17.81,-14.8227 -1.853,-0.9871 -3.281,-1.7979 -3.171,-1.8018 0.557,-0.02 7.013,2.9149 10.392,4.7248 4.69,2.5118 8.709,5.5135 12.426,9.28 3.069,3.1107 3.975,3.4368 5.204,1.874 0.806,-1.0241 0.748,-1.443 -0.555,-4.0013 -1.962,-3.8524 -8.37,-10.9309 -12.895,-14.2419 -0.603,-0.4419 -0.377,-0.3888 0.661,0.1552 2.554,1.3396 7.502,5.5381 11.607,9.85 4.335,4.5548 5.197,4.9001 5.105,2.0467 -0.13,-4.0004 -3.997,-10.6439 -8.795,-15.1048 -3.126,-2.9071 -2.537,-2.7498 1.778,0.4741 3.476,2.5987 5.872,4.9259 8.644,8.3992 1.109,1.39 2.173,2.5272 2.366,2.5272 0.192,0 0.623,-0.5309 0.958,-1.1797 1.443,-2.791 -0.787,-7.3556 -6.663,-13.6369 -1.956,-2.0909 -5.206,-4.8649 -10.615,-9.0601 -0.857,-0.6643 -0.727,-0.6311 0.588,0.1514 6.364,3.7865 12.721,8.9522 16.612,13.5027 l 2.67,3.1208 0.838,-1.0356 c 1.435,-1.7725 1.592,-2.7548 0.801,-5.0002 -0.772,-2.1983 -3.568,-7.2262 -5.185,-9.3266 -1.833,-2.3819 -1.589,-2.4677 0.534,-0.1873 1.149,1.2355 2.803,3.2523 3.674,4.4817 0.871,1.2294 2.143,2.8151 2.824,3.5237 l 1.24,1.2882 0.752,-0.7526 c 2.554,-2.5537 0.576,-8.6816 -5.398,-16.7261 l -2.542,-3.4214 2.847,2.9952 c 1.565,1.6474 4.141,4.9328 5.723,7.3008 3.104,4.6445 3.733,5.0582 5.035,3.3142 1.119,-1.4993 0.931,-3.7357 -0.569,-6.7572 -0.696,-1.4011 -1.212,-2.5474 -1.148,-2.5474 0.06,0 1.051,1.2636 2.193,2.808 1.791,2.4224 2.233,2.8081 3.213,2.8081 0.769,0 1.507,-0.3701 2.278,-1.1405 1.021,-1.0207 1.123,-1.325 0.969,-2.9016 l -0.172,-1.7612 1.253,1.2592 c 1.171,1.1749 1.311,1.2223 2.092,0.7081 2.068,-1.3604 2.177,-5.1456 0.309,-10.7297 -0.95,-2.8388 -0.983,-3.089 -0.305,-2.2686 0.642,0.7759 2.422,4.3708 4.52,9.1245 l 0.48,1.0887 0.819,-0.8786 c 0.45,-0.4831 0.825,-1.31 0.833,-1.8374 l 0.01,-0.959 0.56,1.0296 c 0.627,1.1568 1.233,1.2696 2.706,0.5035 1.564,-0.814 2.639,-2.1642 3.021,-3.792 l 0.348,-1.4852 0.03,1.8037 c 0.03,1.6895 0.1,1.7876 0.881,1.5495 2.184,-0.6587 3.394,-1.487 3.884,-2.6569 0.588,-1.4063 0.662,-4.8533 0.152,-7.0506 -0.803,-3.4646 0.558,-1.1317 2.221,3.8074 1.283,3.8124 1.106,3.7509 5.527,1.9201 3.187,-1.3195 5.109,-2.5422 5.264,-3.3489 0.135,-0.7022 -4.283,-4.9572 -8.159,-7.8569 -10.089,-7.5474 -22.714,-11.6744 -35.753,-11.6877 -6.327,-0.011 -9.897,0.597 -14.269,2.4114 -2.693,1.118 -5.762,3.3673 -5.762,4.2244 0,0.2568 0.779,1.4652 1.73,2.6853 1.521,1.9494 4.643,6.4334 5.581,8.014 0.414,0.6988 -0.712,-0.1641 -4.494,-3.4424 -3.485,-3.0215 -5.714,-4.2014 -7.284,-3.8565 -0.61,0.1339 -2.507,1.096 -4.217,2.138 -4.183,2.549 -5.255,2.9758 -11.539,4.5953 -2.972,0.7658 -6.035,1.7146 -6.807,2.1083 -2.236,1.1404 -4.094,2.9912 -5.037,5.0142 -0.786,1.6889 -0.873,2.4128 -0.881,7.3036 -0.01,8.4032 -1.134,11.2831 -6.813,17.4833 -7.865,8.5865 -10.433,14.4133 -9.934,22.5428 0.274,4.473 1.496,7.9478 5.808,16.509 2.479,4.92 4.092,8.6755 4.947,11.516 0.698,2.3184 1.372,4.0875 1.499,3.9313 0.126,-0.1561 1.73,-2.053 3.564,-4.2152 z m 320.11,-0.1958 c 2.621,-0.3414 9.571,-2.6347 11.043,-3.6434 1.589,-1.0898 3.618,-4.4979 5.921,-9.952 1.563,-3.7012 4.939,-13.0824 4.939,-13.725 0,-0.1103 -1.004,0.306 -2.23,0.9251 -5.242,2.646 -14.245,5.2793 -21.171,6.1922 -4.063,0.5357 -4.573,0.6887 -5.339,1.6035 -1.404,1.6762 -1.73,3.5784 -1.229,7.1746 0.404,2.9062 2.06,7.9453 3.567,10.8595 0.511,0.9889 0.78,1.1542 1.619,0.9975 0.554,-0.103 1.85,-0.2977 2.88,-0.432 z m 4.027,-22.678 c 7.712,-1.4113 15.436,-4.5941 17.978,-7.4077 0.817,-0.9045 1.93,-3.1195 3.229,-6.4226 3.433,-8.7309 7.43,-15.5103 11.95,-20.2672 l 2.609,-2.7461 -5.772,0.12 c -3.425,0.071 -8.185,-0.119 -11.707,-0.4679 -9.703,-0.9615 -9.295,-1.0241 -12.403,1.907 -3.028,2.8563 -6.07,7.2259 -8.198,11.7738 -1.523,3.2563 -3.549,10.2366 -4.004,13.7995 l -0.261,2.0474 1.089,-0.7002 c 3.367,-2.1656 17.326,-13.6252 27.997,-22.9845 2.189,-1.9198 3.98,-3.3766 3.98,-3.2373 0,0.3241 -3.655,4.4823 -12.002,13.6543 -6.541,7.1872 -13.933,14.6334 -19.448,19.5906 l -2.809,2.524 1.873,-0.2231 c 1.03,-0.1227 3.684,-0.5547 5.899,-0.96 z m -11.275,-4.1769 2.368,-1.5912 0.468,-3.5569 c 0.905,-6.8714 3.58,-14.2643 7.068,-19.5333 0.999,-1.509 3.261,-4.2102 5.024,-6.0025 l 3.209,-3.2588 -1.895,-0.2368 c -1.042,-0.1302 -4.003,-0.1801 -6.579,-0.1108 -4.409,0.1185 -4.829,0.1976 -7.171,1.3524 -3.547,1.7482 -7.179,5.7176 -9.417,10.2913 -1.47,3.0067 -3.612,9.2471 -3.612,10.5278 0,0.2384 0.756,1.441 1.681,2.6725 0.923,1.2315 2.651,4.2091 3.837,6.6168 1.187,2.4077 2.269,4.3874 2.405,4.3993 0.136,0.012 1.312,-0.6946 2.614,-1.5698 z m -87.504,-7.8252 c -4.031,-7.963 -11.194,-15.0766 -19.141,-19.0103 -3.171,-1.5702 -4.877,-2.1946 -12.281,-4.4962 -6.011,-1.8682 -8.747,-3.3916 -15.029,-8.3653 -5.597,-4.4316 -9.601,-6.8831 -13.509,-8.2719 -8.608,-3.0587 -18.1,-1.3962 -27.756,4.8611 -5.08,3.292 -14.103,12.8033 -13.099,13.8074 0.117,0.1174 2.805,0.7281 5.974,1.3571 6.76,1.3421 11.594,1.5243 15.307,0.5767 3.565,-0.9094 8.626,-3.5687 13.17,-6.9203 4.643,-3.4247 6.219,-4.2473 8.573,-4.4747 3.177,-0.3068 5.89,1.8366 8.919,7.0451 1.218,2.0965 1.551,2.3971 3.41,3.0811 3.632,1.3372 6.165,3.5407 12.796,11.1321 1.528,1.7503 3.947,4.0648 5.375,5.1432 3.905,2.9498 6.151,3.6965 13.843,4.602 3.622,0.4265 8.304,1.0681 10.405,1.4256 2.101,0.3577 3.872,0.6188 3.938,0.5802 0.06,-0.038 -0.337,-0.9714 -0.895,-2.0729 z m -39.378,-2.6341 c 2.419,-0.456 4.399,-0.9774 4.399,-1.1587 0,-0.1812 -0.96,-2.2113 -2.133,-4.5115 -2.292,-4.4928 -5.223,-7.9187 -7.458,-8.7168 l -1.166,-0.4165 -1.152,4.1606 c -1.117,4.0356 -2.113,8.8199 -1.874,9.0133 1.546,1.2548 3.59,2.4493 4.198,2.4535 0.432,0 2.766,-0.3677 5.186,-0.8239 z m -133.069,-6.3394 c 2.196,-2.0836 4.666,-4.0877 5.491,-4.4534 0.823,-0.3658 3.603,-0.9484 6.176,-1.2947 6.604,-0.8883 6.689,-0.9259 8.299,-3.6804 2.072,-3.5488 4.385,-6.4717 9.537,-12.0594 5.234,-5.676 5.315,-5.4348 -1.174,-3.4879 -7.694,2.3081 -15.627,6.9224 -21.481,12.4933 -3.838,3.6513 -8.967,10.056 -10.542,13.1597 -2.179,4.2967 -1.396,4.1531 3.694,-0.6772 z m 248.846,-0.2367 c 2.409,-7.7659 6.962,-13.9384 12.183,-16.5178 l 2.425,-1.1984 -2.995,0.218 c -10.454,0.7606 -17.158,2.0079 -20.466,3.8084 -2.753,1.4982 -7.052,6.5348 -7.052,8.2609 0,0.1709 1.556,0.9693 3.457,1.7743 3.271,1.385 9.344,5.1014 10.383,6.3539 0.264,0.3172 0.607,0.5767 0.763,0.5767 0.156,0 0.742,-1.4741 1.302,-3.276 z m -16.754,-7.732 c 0.666,-1.1007 1.98,-2.8565 2.92,-3.9017 l 1.708,-1.9005 -2.7,0.7483 c -5.038,1.396 -11.879,4.259 -11.383,4.7638 0.191,0.1941 7.108,2.1399 8.057,2.2663 0.106,0.014 0.732,-0.8757 1.398,-1.9762 z m -203.583,-0.2424 c 1.933,-0.4219 5.379,-1.0119 7.658,-1.311 2.664,-0.3497 4.287,-0.7382 4.546,-1.0887 0.351,-0.4737 0.483,-0.4668 1.002,0.053 0.329,0.3288 1.422,0.677 2.43,0.7738 1.697,0.163 1.907,0.088 2.836,-1.017 0.552,-0.6561 1.012,-1.4749 1.02,-1.8195 0.01,-0.3446 0.256,0.046 0.549,0.8662 0.944,2.6539 2.583,3.1559 4.3,1.3176 0.876,-0.9371 1.086,-1.021 1.281,-0.5116 0.313,0.816 2.686,0.4928 5.937,-0.8084 4.011,-1.6058 5.083,-3.3169 5.155,-8.2296 0.04,-2.5966 0.478,-1.9421 0.881,1.3104 0.305,2.4628 0.915,4.4929 1.348,4.4929 0.173,0 1.401,-1.3915 2.729,-3.0921 4.309,-5.5186 9.251,-9.7985 16.481,-14.2733 1.589,-0.983 1.635,-1.6221 0.223,-3.0783 -3.434,-3.5443 -12.739,-5.673 -20.384,-4.6641 -13.923,1.8372 -32.858,15.1817 -41.857,29.4996 -1.693,2.6944 -1.536,2.759 3.865,1.5803 z m 159.355,-20.4804 c -0.45,-7.0206 -1.904,-11.3557 -5.242,-15.6313 -4.553,-5.8307 -12.147,-10.145 -25.406,-14.4331 -14.505,-4.6909 -17.967,-6.8227 -22.336,-13.7502 -2.476,-3.9254 -5.016,-5.31 -14.043,-7.655 -5.682,-1.4764 -9.619,-1.6014 -12.292,-0.3907 l -1.778,0.8057 v 3.179 c 0,3.6099 -0.681,7.2971 -2.149,11.652 l -1.011,2.9953 -0.447,-6.6047 c -0.507,-7.4815 -1.236,-11.0246 -2.483,-12.064 -0.707,-0.5891 -1.301,-0.6713 -3.831,-0.5297 -2.632,0.1472 -3.52,0.4071 -7.302,2.1376 -7.935,3.6301 -11.797,4.6057 -20.794,5.2526 -6.843,0.4919 -8.345,0.6787 -11.211,1.3934 -7.67,1.913 -14.494,8.1624 -19.282,17.6574 -0.842,1.6721 -1.768,3.7059 -2.054,4.5194 l -0.523,1.479 3.125,2.2696 c 1.717,1.2482 4.477,3.5426 6.13,5.0987 l 3.008,2.8291 2.455,-1.5502 c 1.35,-0.8527 2.454,-1.6249 2.454,-1.716 0,-0.091 -0.252,-0.7705 -0.561,-1.5097 -0.776,-1.8559 -0.722,-1.9209 0.566,-0.6871 l 1.127,1.0801 2.331,-0.4816 c 2.919,-0.6027 3.015,-0.6662 2.728,-1.8075 l -0.235,-0.9359 1.004,0.7896 c 0.84,0.6603 1.517,0.7897 4.135,0.7897 h 3.133 v -1.0013 -1.0013 l 0.851,0.8006 c 0.651,0.6107 1.65,0.8917 4.213,1.1853 1.847,0.2118 3.5,0.3864 3.671,0.3881 0.171,0 0.2,-0.4973 0.06,-1.1087 l -0.244,-1.1116 1.14,1.0652 c 0.627,0.5859 2.282,1.5361 3.678,2.1115 1.395,0.5754 4.113,1.7024 6.038,2.5044 1.927,0.802 3.584,1.3756 3.685,1.2748 0.362,-0.3624 -0.332,-1.7542 -2.03,-4.0652 -1.912,-2.6042 -1.535,-2.4097 2.338,1.2053 2.7,2.5194 4.966,3.8848 6.093,3.6713 1.689,-0.3197 0.488,-4.6174 -2.421,-8.6733 l -1.381,-1.9252 1.225,1.1233 c 0.674,0.6177 2.372,2.6523 3.774,4.5211 2.668,3.5551 4.697,5.5527 5.279,5.1937 1.371,-0.8476 -1.047,-9.9701 -4.541,-17.1235 -1.07,-2.1916 -1.082,-2.2621 -0.205,-1.221 1.382,1.6405 5.155,8.4976 6.939,12.6139 1.65,3.8063 3.494,6.3329 5.304,7.2691 1.227,0.6345 2.377,0.2689 2.739,-0.8702 0.386,-1.213 -1.065,-8.0165 -2.614,-12.2552 -0.149,-0.4119 0.478,0.1995 1.395,1.3586 1.859,2.3495 3.76,5.8233 5.526,10.1011 1.325,3.2106 2.74,4.8833 3.495,4.1296 0.527,-0.5275 0.654,-9.0844 0.18,-12.2196 l -0.283,-1.8721 1.089,2.0685 c 1.669,3.1712 2.644,6.5477 3.076,10.6612 0.435,4.1283 0.867,5.6411 1.704,5.9623 2.567,0.985 5.144,-6.1281 5.688,-15.6968 l 0.254,-4.4928 0.462,2.9169 c 0.254,1.6044 0.461,5.5216 0.461,8.7049 0,6.4757 0,6.4702 2.475,4.8155 3.412,-2.2782 5.792,-5.2017 7.662,-9.4089 l 1.127,-2.5356 -0.219,2.2465 c -0.121,1.2356 -0.48,3.5663 -0.796,5.1794 -0.318,1.6132 -0.503,3.0059 -0.414,3.0952 0.08,0.089 1.577,-0.1708 3.307,-0.5777 13.898,-3.2691 24.418,-0.8106 37.402,8.7398 1.545,1.1361 3.044,2.0725 3.332,2.0809 0.432,0.013 0.478,-0.6862 0.265,-4.0095 z m 11.748,-7.9419 c 3.463,-6.86 6.237,-16.9413 6.908,-25.0992 l 0.23,-2.808 -0.926,1.7281 c -1.988,3.7077 -7.91,9.0961 -13.171,11.9837 -1.523,0.8356 -2.768,1.5906 -2.768,1.6778 0,0.087 0.761,1.0933 1.692,2.2357 1.857,2.2804 3.632,5.6203 5.211,9.7997 0.563,1.493 1.175,2.7145 1.361,2.7145 0.185,0 0.843,-1.0045 1.463,-2.2323 z m -8.316,-15.888 c 6.678,-3.364 12.822,-8.5805 14.776,-12.5451 0.783,-1.5886 0.84,-2.1515 0.753,-7.3367 -0.05,-3.0888 -0.356,-7.5536 -0.676,-9.9217 -1.015,-7.5273 -2.74,-14.9315 -2.775,-11.9096 -0.01,1.3327 -1.716,6.0065 -3.041,8.3527 -3.213,5.6937 -10.636,12.0555 -18.921,16.218 -2.196,1.1037 -3.102,1.7687 -3.251,2.3901 -0.393,1.6251 -1.086,8.5385 -0.904,9.0132 0.1,0.2612 1.93,1.51 4.065,2.7749 2.136,1.2651 4.473,2.8132 5.193,3.4402 0.721,0.6271 1.355,1.1469 1.412,1.1553 0.05,0.011 1.572,-0.7257 3.369,-1.6313 z m -16.985,-9.4578 c 0.785,-7.6495 3.433,-19.4728 7.755,-34.6198 1.623,-5.6886 2.949,-10.4904 2.945,-10.6706 0,-0.1802 -1.184,2.6208 -2.624,6.2245 -5.248,13.1299 -8.681,24.6063 -10.459,34.9617 -0.956,5.5626 -0.965,5.3409 0.266,6.0086 1.667,0.9045 1.847,0.7433 2.117,-1.9044 z m -4.862,-3.7783 c 1.465,-8.6314 4.115,-17.9976 7.599,-26.8635 3.97,-10.0971 9.99,-22.7805 13.243,-27.8931 1.713,-2.6937 1.707,-2.6227 -0.157,1.7226 -2.247,5.2375 -3.591,9.6208 -5.299,17.2665 -3.156,14.1366 -6.339,30.4005 -6.013,30.7263 0.267,0.2676 5.701,-2.8109 9.33,-5.2864 10.138,-6.9154 16.082,-16.1882 14.488,-22.6034 -0.636,-2.5624 -2.757,-8.3471 -3.059,-8.3471 -0.14,0 -0.364,0.4352 -0.498,0.9671 -0.268,1.0703 -1.842,3.7061 -2.429,4.0688 -0.206,0.1275 0.04,-0.674 0.546,-1.781 1.799,-3.9284 1.815,-5.1093 0.143,-10.2868 -1.268,-3.9226 -2.021,-7.5043 -2.833,-13.4637 l -0.166,-1.2138 -2.885,2.0033 c -1.587,1.1019 -4.991,3.2337 -7.565,4.7374 -12.37,7.226 -20.655,13.7101 -22.319,17.4658 -1.789,4.0355 -2.767,10.3686 -2.536,16.4104 0.1,2.5171 0.05,2.786 -0.265,1.6848 -0.641,-2.2112 -0.543,-11.4291 0.155,-14.5765 0.339,-1.5305 0.53,-2.8691 0.425,-2.9747 -0.5,-0.499 -9.54,10.0452 -11.151,13.005 -1.353,2.4865 -1.802,6.2257 -1.357,11.2977 0.381,4.3528 1.483,9.1829 2.422,10.6147 0.557,0.8499 5.439,3.2143 7.925,3.8385 0.796,0.1997 0.881,0.1206 0.719,-0.6608 -0.106,-0.4882 -0.27,-1.7302 -0.373,-2.7597 l -0.187,-1.8721 0.556,1.8721 c 1.21,4.074 1.109,3.9788 5.808,5.491 2.346,0.7548 4.442,1.3865 4.658,1.404 0.216,0.017 0.7,-1.7797 1.075,-3.9934 z m -24.469,-10.6382 c -0.225,-2.3345 -0.451,-5.2553 -0.502,-6.4908 l -0.1,-2.2464 -1.543,3.2193 c -2.343,4.886 -2.348,4.4661 0.1,7.4418 1.183,1.4393 2.219,2.5501 2.301,2.4686 0.08,-0.082 -0.03,-2.0582 -0.262,-4.3925 z" id="path10" /></g></svg>